M48
;GenerationSoftware,Autodesk,EAGLE,9.0.0*%
;CreationDate,2018-08-21T14:51:32Z*%
FMAT,2
ICI,OFF
METRIC,TZ,000.000
T15C0.350
T14C0.952
T13C1.000
T12C1.031
T11C1.270
T10C1.300
T9C1.536
T8C1.539
T7C1.540
T6C1.778
T5C2.000
T4C2.032
T3C2.159
T2C4.191
T1C17.272
%
G90
M71
T1
X77216Y46228
T2
X43942Y87122
X77216Y92837
X110363Y87122
X111506Y27305
X42672Y27305
T3
X77089Y66675
T4
X65183Y97663
X71628Y97695
T5
X91757Y76200
X104838Y80137
T6
X90075Y97472
X82582Y97472
T7
X80550Y97041
T8
X48438Y92949
X40437Y92949
X113665Y93059
X105664Y93059
T9
X92031Y97041
T10
X63326Y96371
X73326Y96371
T11
X103873Y76546
X103873Y71091
X111503Y40386
X111503Y48006
T12
X46660Y91044
X42342Y91044
X111887Y91154
X107569Y91154
T13
X68326Y93996
X68326Y95996
X66326Y93996
X66326Y95996
X70326Y95996
X70326Y93996
T14
X65129Y33606
X63023Y33606
T15
X90490Y60418
X88700Y77822
X92230Y70814
X90713Y77857
X103791Y61849
X100681Y75564
X54569Y52692
X51054Y56808
X98679Y51880
X107823Y82637
X58547Y57514
X87757Y65238
X54737Y59014
X96539Y65794
X100765Y66818
X106759Y69175
X95310Y64208
X46641Y66635
X58166Y63754
X62579Y57912
X60373Y66635
X82525Y61166
X102495Y86255
X94044Y69278
X97917Y74168
X51067Y69075
X49073Y88268
X51054Y77403
X49463Y79372
X65967Y54515
X71025Y55213
X73320Y56578
X68834Y59094
X93707Y73520
X99314Y74962
X89198Y69398
X82118Y70513
X75311Y65786
X72708Y57944
X64452Y54419
X50073Y70428
X50048Y88287
X59652Y29175
X69158Y92836
X74860Y27073
X81280Y69850
X73660Y90170
X101219Y58039
X63563Y58674
X47847Y46133
X71700Y71024
X90551Y48940
X53753Y39688
X46641Y46164
X72267Y55036
X89343Y46445
X90392Y48133
X82975Y54654
X122637Y71607
X123190Y77470
X123444Y71628
X123444Y76073
X124460Y71501
X124841Y75692
X126053Y72067
X125667Y76263
X126877Y72390
X126365Y75819
X91376Y63817
X68072Y26162
X61214Y55379
X86106Y26162
X58229Y62484
X53594Y73493
X79622Y73090
X72139Y73091
X79673Y62678
X99949Y44069
X81407Y88265
X59055Y78359
X48387Y54102
X114300Y80137
X44577Y35814
X50546Y43307
X51562Y46863
X55626Y44323
X87630Y53340
X92278Y81034
X55204Y54839
X96676Y63684
X100705Y64148
X88821Y73670
X93228Y71923
X95107Y71288
X64103Y61595
X68834Y63436
X65818Y63532
X57690Y66897
X94710Y68802
X91726Y37624
X51022Y88328
X106458Y67723
X67739Y74889
X65214Y38989
X72168Y61214
M30