G04 EAGLE Gerber X2 export*
%TF.Part,Single*%
%TF.FileFunction,Profile,NP*%
%TF.FilePolarity,Positive*%
%TF.GenerationSoftware,Autodesk,EAGLE,9.0.0*%
%TF.CreationDate,2018-08-21T14:51:34Z*%
G75*
%MOMM*%
%FSLAX34Y34*%
%LPD*%
%AMOC8*
5,1,8,0,0,1.08239X$1,22.5*%
G01*
%ADD10C,0.254000*%


D10*
X384657Y456733D02*
X389777Y450926D01*
X389999Y321511D01*
X389838Y251008D01*
X389798Y250846D01*
X389878Y249737D01*
X389838Y247318D01*
X390100Y244939D01*
X390322Y243931D01*
X390382Y243427D01*
X391007Y241209D01*
X392076Y238286D01*
X392298Y237802D01*
X392862Y236733D01*
X393044Y236310D01*
X393185Y236068D01*
X393386Y235685D01*
X394536Y233891D01*
X395322Y232802D01*
X395503Y232479D01*
X395786Y232157D01*
X397459Y230221D01*
X397640Y230080D01*
X398185Y229496D01*
X398447Y229254D01*
X398689Y229012D01*
X399213Y228528D01*
X399939Y227903D01*
X401310Y226834D01*
X402217Y226209D01*
X403104Y225665D01*
X403931Y225221D01*
X405886Y224153D01*
X406955Y223669D01*
X408729Y223004D01*
X410060Y222580D01*
X410826Y222439D01*
X415947Y221552D01*
X422882Y221572D01*
X432419Y221592D01*
X442338Y221572D01*
X482862Y221572D01*
X523688Y221592D01*
X540160Y221572D01*
X643225Y221572D01*
X657761Y221552D01*
X668547Y221592D01*
X678406Y221572D01*
X695825Y221572D01*
X704374Y221592D01*
X714333Y221592D01*
X728789Y221552D01*
X738063Y221592D01*
X739716Y221592D01*
X742620Y221592D01*
X742499Y223608D01*
X742801Y227237D01*
X743003Y228064D01*
X743708Y229838D01*
X744353Y231189D01*
X745140Y232661D01*
X746007Y234092D01*
X747801Y236612D01*
X749152Y238165D01*
X751914Y240866D01*
X754454Y242842D01*
X756934Y244395D01*
X758809Y245342D01*
X760865Y246270D01*
X763265Y247076D01*
X765644Y247721D01*
X768224Y248165D01*
X770704Y248387D01*
X771269Y248387D01*
X772901Y248427D01*
X773668Y248427D01*
X773890Y248427D01*
X774877Y248366D01*
X776269Y248205D01*
X777377Y248044D01*
X778446Y247862D01*
X779434Y247620D01*
X780382Y247419D01*
X781168Y247177D01*
X782922Y246612D01*
X783244Y246491D01*
X784313Y246088D01*
X784313Y246088D01*
X785684Y245483D01*
X786873Y244879D01*
X787962Y244294D01*
X789051Y243669D01*
X791188Y242157D01*
X792136Y241411D01*
X793204Y240504D01*
X795281Y238487D01*
X796047Y237641D01*
X796551Y237036D01*
X798123Y234979D01*
X798688Y234133D01*
X800140Y231673D01*
X800926Y230000D01*
X802115Y226996D01*
X803103Y223326D01*
X803466Y220806D01*
X803587Y220806D01*
X1125542Y220806D01*
X1125724Y220907D01*
X1127558Y221149D01*
X1128244Y221290D01*
X1129937Y221713D01*
X1131772Y222237D01*
X1134010Y223165D01*
X1135683Y223931D01*
X1137478Y224919D01*
X1139111Y225907D01*
X1140905Y227298D01*
X1142437Y228588D01*
X1143788Y229879D01*
X1145099Y231270D01*
X1146469Y233104D01*
X1147800Y234939D01*
X1148687Y236451D01*
X1149534Y238165D01*
X1150421Y240141D01*
X1151026Y241895D01*
X1151530Y243568D01*
X1151631Y244012D01*
X1151853Y245141D01*
X1152034Y246088D01*
X1152316Y247701D01*
X1152377Y251592D01*
X1152417Y254072D01*
X1152417Y281491D01*
X1152457Y288830D01*
X1152417Y298225D01*
X1152417Y322802D01*
X1152357Y324334D01*
X1151853Y325302D01*
X1151187Y326048D01*
X1150381Y326552D01*
X1149514Y326854D01*
X1130421Y326854D01*
X1130038Y326895D01*
X1129413Y327157D01*
X1128768Y327741D01*
X1128284Y328487D01*
X1128183Y329314D01*
X1128183Y332399D01*
X1128203Y338326D01*
X1128203Y413487D01*
X1128183Y423991D01*
X1128203Y434031D01*
X1128203Y499011D01*
X1128224Y508628D01*
X1128224Y528789D01*
X1128183Y537378D01*
X1128163Y552459D01*
X1128224Y558930D01*
X1128808Y559717D01*
X1129776Y560201D01*
X1131853Y560301D01*
X1133586Y560261D01*
X1152558Y560261D01*
X1153264Y560281D01*
X1154111Y560826D01*
X1155119Y561713D01*
X1155804Y562600D01*
X1156349Y563688D01*
X1156631Y564717D01*
X1156651Y567398D01*
X1156651Y610200D01*
X1156631Y620100D01*
X1156651Y635200D01*
X1156611Y657801D01*
X1156651Y669636D01*
X1156631Y684535D01*
X1156651Y701531D01*
X1163676Y701523D01*
X1163701Y701497D01*
X1163701Y605215D01*
X1163747Y604158D01*
X1163885Y603110D01*
X1164114Y602077D01*
X1164432Y601068D01*
X1164837Y600091D01*
X1165325Y599153D01*
X1165894Y598260D01*
X1166538Y597421D01*
X1167252Y596641D01*
X1168032Y595927D01*
X1168871Y595283D01*
X1169763Y594714D01*
X1170702Y594226D01*
X1171679Y593821D01*
X1172688Y593503D01*
X1173721Y593274D01*
X1174769Y593136D01*
X1175826Y593090D01*
X1342082Y593090D01*
X1343216Y593140D01*
X1344341Y593288D01*
X1345449Y593533D01*
X1346531Y593874D01*
X1347579Y594309D01*
X1348586Y594833D01*
X1349543Y595442D01*
X1350443Y596133D01*
X1351280Y596900D01*
X1352047Y597737D01*
X1352738Y598637D01*
X1353347Y599594D01*
X1353871Y600601D01*
X1354306Y601649D01*
X1354647Y602731D01*
X1354892Y603839D01*
X1355041Y604964D01*
X1355090Y606098D01*
X1355090Y871188D01*
X1355043Y872265D01*
X1354902Y873333D01*
X1354669Y874385D01*
X1354345Y875413D01*
X1353933Y876408D01*
X1353435Y877364D01*
X1352856Y878272D01*
X1352201Y879127D01*
X1351473Y879922D01*
X1350678Y880650D01*
X1349823Y881305D01*
X1348915Y881884D01*
X1347959Y882382D01*
X1346964Y882794D01*
X1345936Y883118D01*
X1344884Y883351D01*
X1343816Y883492D01*
X1342739Y883539D01*
X1173564Y883539D01*
X1172782Y883505D01*
X1172006Y883403D01*
X1171242Y883233D01*
X1170495Y882998D01*
X1169772Y882698D01*
X1169077Y882337D01*
X1168417Y881916D01*
X1167796Y881439D01*
X1167219Y880910D01*
X1166690Y880333D01*
X1166213Y879712D01*
X1165792Y879052D01*
X1165431Y878357D01*
X1165131Y877634D01*
X1164896Y876887D01*
X1164726Y876123D01*
X1164624Y875347D01*
X1164590Y874565D01*
X1164590Y735330D01*
X1156631Y735330D01*
X1156631Y812700D01*
X1156611Y832357D01*
X1156611Y845684D01*
X1156651Y857599D01*
X1156631Y871813D01*
X1156631Y890785D01*
X1156611Y898164D01*
X1156570Y898385D01*
X1154070Y899918D01*
X1154111Y918728D01*
X1154111Y936389D01*
X1154070Y946853D01*
X1153748Y949051D01*
X1153082Y951248D01*
X1152679Y952176D01*
X1151026Y955119D01*
X1150703Y955522D01*
X1148990Y957478D01*
X1148163Y958184D01*
X1146570Y959393D01*
X1146187Y959615D01*
X1143244Y959615D01*
X1138264Y959615D01*
X1127256Y959575D01*
X1125824Y959575D01*
X1119272Y959555D01*
X1103506Y959575D01*
X1052962Y959575D01*
X1041974Y959595D01*
X1013063Y959575D01*
X997962Y959575D01*
X963184Y959595D01*
X962579Y959555D01*
X960321Y959676D01*
X956208Y960784D01*
X952881Y962639D01*
X951349Y963869D01*
X949676Y965502D01*
X948184Y967377D01*
X946873Y969756D01*
X946349Y970946D01*
X945542Y973385D01*
X945180Y975986D01*
X945159Y983365D01*
X945159Y987740D01*
X945079Y988909D01*
X944655Y990381D01*
X944151Y991309D01*
X943587Y991954D01*
X943143Y992458D01*
X942559Y992821D01*
X941692Y993304D01*
X940966Y993506D01*
X940341Y993627D01*
X939292Y993708D01*
X938486Y993728D01*
X930119Y993708D01*
X925059Y993667D01*
X917236Y993688D01*
X909958Y993708D01*
X908123Y993688D01*
X649716Y993688D01*
X641914Y993647D01*
X632841Y993647D01*
X626975Y993748D01*
X603628Y993506D01*
X602882Y993482D01*
X602142Y993394D01*
X601412Y993241D01*
X600698Y993025D01*
X600006Y992748D01*
X599340Y992411D01*
X598706Y992018D01*
X598109Y991571D01*
X597554Y991074D01*
X597043Y990530D01*
X596582Y989943D01*
X596174Y989319D01*
X595822Y988662D01*
X595529Y987976D01*
X595296Y987268D01*
X595126Y986541D01*
X595020Y985803D01*
X594979Y985059D01*
X595079Y975240D01*
X595062Y973733D01*
X594913Y972233D01*
X594635Y970752D01*
X594228Y969300D01*
X593696Y967890D01*
X593043Y966532D01*
X592275Y965235D01*
X591396Y964011D01*
X590414Y962867D01*
X589336Y961814D01*
X588170Y960858D01*
X586926Y960008D01*
X585612Y959270D01*
X584238Y958648D01*
X582816Y958149D01*
X581356Y957776D01*
X579869Y957531D01*
X578366Y957417D01*
X503893Y957417D01*
X398084Y957619D01*
X396290Y957498D01*
X394536Y956954D01*
X393991Y956571D01*
X392177Y955200D01*
X391249Y953909D01*
X390523Y952740D01*
X390181Y951893D01*
X390544Y850139D01*
X384838Y847599D01*
X384798Y846551D01*
X384657Y456733D01*
X913520Y955787D02*
X927733Y955787D01*
X927733Y984823D01*
X913520Y984823D01*
X913520Y955787D01*
X725760Y952460D02*
X740760Y952460D01*
X740760Y974960D01*
X725760Y974960D01*
X725760Y952460D01*
X625760Y952460D02*
X640760Y952460D01*
X640760Y974960D01*
X625760Y974960D01*
X625760Y952460D01*
X798372Y955787D02*
X812585Y955787D01*
X812585Y984823D01*
X798372Y984823D01*
X798372Y955787D01*
X659291Y977395D02*
X659291Y978172D01*
X659215Y978946D01*
X659063Y979709D01*
X658838Y980453D01*
X658540Y981172D01*
X658173Y981857D01*
X657741Y982504D01*
X657248Y983105D01*
X656698Y983655D01*
X656097Y984148D01*
X655450Y984580D01*
X654765Y984947D01*
X654046Y985245D01*
X653302Y985470D01*
X652539Y985622D01*
X651765Y985698D01*
X650988Y985698D01*
X650214Y985622D01*
X649451Y985470D01*
X648707Y985245D01*
X647988Y984947D01*
X647303Y984580D01*
X646656Y984148D01*
X646055Y983655D01*
X645505Y983105D01*
X645012Y982504D01*
X644580Y981857D01*
X644213Y981172D01*
X643915Y980453D01*
X643690Y979709D01*
X643538Y978946D01*
X643462Y978172D01*
X643462Y977395D01*
X643538Y976621D01*
X643690Y975858D01*
X643915Y975114D01*
X644213Y974396D01*
X644580Y973710D01*
X645012Y973063D01*
X645505Y972462D01*
X646055Y971912D01*
X646656Y971419D01*
X647303Y970987D01*
X647988Y970620D01*
X648707Y970323D01*
X649451Y970097D01*
X650214Y969945D01*
X650988Y969869D01*
X651765Y969869D01*
X652539Y969945D01*
X653302Y970097D01*
X654046Y970323D01*
X654765Y970620D01*
X655450Y970987D01*
X656097Y971419D01*
X656698Y971912D01*
X657248Y972462D01*
X657741Y973063D01*
X658173Y973710D01*
X658540Y974396D01*
X658838Y975114D01*
X659063Y975858D01*
X659215Y976621D01*
X659291Y977395D01*
X722657Y977704D02*
X722657Y978481D01*
X722581Y979255D01*
X722429Y980018D01*
X722204Y980762D01*
X721906Y981481D01*
X721539Y982166D01*
X721107Y982813D01*
X720614Y983414D01*
X720064Y983964D01*
X719463Y984457D01*
X718816Y984889D01*
X718131Y985256D01*
X717412Y985554D01*
X716668Y985779D01*
X715905Y985931D01*
X715131Y986007D01*
X714354Y986007D01*
X713580Y985931D01*
X712817Y985779D01*
X712073Y985554D01*
X711355Y985256D01*
X710669Y984889D01*
X710022Y984457D01*
X709421Y983964D01*
X708871Y983414D01*
X708378Y982813D01*
X707946Y982166D01*
X707579Y981481D01*
X707282Y980762D01*
X707056Y980018D01*
X706904Y979255D01*
X706828Y978481D01*
X706828Y977704D01*
X706904Y976930D01*
X707056Y976167D01*
X707282Y975423D01*
X707579Y974705D01*
X707946Y974019D01*
X708378Y973372D01*
X708871Y972771D01*
X709421Y972221D01*
X710022Y971728D01*
X710669Y971296D01*
X711355Y970929D01*
X712073Y970632D01*
X712817Y970406D01*
X713580Y970254D01*
X714354Y970178D01*
X715131Y970178D01*
X715905Y970254D01*
X716668Y970406D01*
X717412Y970632D01*
X718131Y970929D01*
X718816Y971296D01*
X719463Y971728D01*
X720064Y972221D01*
X720614Y972771D01*
X721107Y973372D01*
X721539Y974019D01*
X721906Y974705D01*
X722204Y975423D01*
X722429Y976167D01*
X722581Y976930D01*
X722657Y977704D01*
X460375Y870587D02*
X460299Y869323D01*
X460146Y868066D01*
X459918Y866820D01*
X459615Y865590D01*
X459238Y864381D01*
X458789Y863197D01*
X458269Y862042D01*
X457680Y860921D01*
X457025Y859837D01*
X456306Y858795D01*
X455525Y857798D01*
X454685Y856850D01*
X453790Y855955D01*
X452842Y855115D01*
X451845Y854334D01*
X450803Y853615D01*
X449719Y852960D01*
X448598Y852371D01*
X447443Y851851D01*
X446259Y851402D01*
X445050Y851025D01*
X443820Y850722D01*
X442574Y850494D01*
X441317Y850341D01*
X440053Y850265D01*
X438787Y850265D01*
X437523Y850341D01*
X436266Y850494D01*
X435020Y850722D01*
X433790Y851025D01*
X432581Y851402D01*
X431397Y851851D01*
X430242Y852371D01*
X429121Y852960D01*
X428037Y853615D01*
X426995Y854334D01*
X425998Y855115D01*
X425050Y855955D01*
X424155Y856850D01*
X423315Y857798D01*
X422534Y858795D01*
X421815Y859837D01*
X421160Y860921D01*
X420571Y862042D01*
X420051Y863197D01*
X419602Y864381D01*
X419225Y865590D01*
X418922Y866820D01*
X418694Y868066D01*
X418541Y869323D01*
X418465Y870587D01*
X418465Y871853D01*
X418541Y873117D01*
X418694Y874374D01*
X418922Y875620D01*
X419225Y876850D01*
X419602Y878059D01*
X420051Y879243D01*
X420571Y880398D01*
X421160Y881519D01*
X421815Y882603D01*
X422534Y883645D01*
X423315Y884642D01*
X424155Y885590D01*
X425050Y886485D01*
X425998Y887325D01*
X426995Y888106D01*
X428037Y888825D01*
X429121Y889480D01*
X430242Y890069D01*
X431397Y890589D01*
X432581Y891038D01*
X433790Y891415D01*
X435020Y891718D01*
X436266Y891946D01*
X437523Y892099D01*
X438787Y892175D01*
X440053Y892175D01*
X441317Y892099D01*
X442574Y891946D01*
X443820Y891718D01*
X445050Y891415D01*
X446259Y891038D01*
X447443Y890589D01*
X448598Y890069D01*
X449719Y889480D01*
X450803Y888825D01*
X451845Y888106D01*
X452842Y887325D01*
X453790Y886485D01*
X454685Y885590D01*
X455525Y884642D01*
X456306Y883645D01*
X457025Y882603D01*
X457680Y881519D01*
X458269Y880398D01*
X458789Y879243D01*
X459238Y878059D01*
X459615Y876850D01*
X459918Y875620D01*
X460146Y874374D01*
X460299Y873117D01*
X460375Y871853D01*
X460375Y870587D01*
X793115Y927737D02*
X793039Y926473D01*
X792886Y925216D01*
X792658Y923970D01*
X792355Y922740D01*
X791978Y921531D01*
X791529Y920347D01*
X791009Y919192D01*
X790420Y918071D01*
X789765Y916987D01*
X789046Y915945D01*
X788265Y914948D01*
X787425Y914000D01*
X786530Y913105D01*
X785582Y912265D01*
X784585Y911484D01*
X783543Y910765D01*
X782459Y910110D01*
X781338Y909521D01*
X780183Y909001D01*
X778999Y908552D01*
X777790Y908175D01*
X776560Y907872D01*
X775314Y907644D01*
X774057Y907491D01*
X772793Y907415D01*
X771527Y907415D01*
X770263Y907491D01*
X769006Y907644D01*
X767760Y907872D01*
X766530Y908175D01*
X765321Y908552D01*
X764137Y909001D01*
X762982Y909521D01*
X761861Y910110D01*
X760777Y910765D01*
X759735Y911484D01*
X758738Y912265D01*
X757790Y913105D01*
X756895Y914000D01*
X756055Y914948D01*
X755274Y915945D01*
X754555Y916987D01*
X753900Y918071D01*
X753311Y919192D01*
X752791Y920347D01*
X752342Y921531D01*
X751965Y922740D01*
X751662Y923970D01*
X751434Y925216D01*
X751281Y926473D01*
X751205Y927737D01*
X751205Y929003D01*
X751281Y930267D01*
X751434Y931524D01*
X751662Y932770D01*
X751965Y934000D01*
X752342Y935209D01*
X752791Y936393D01*
X753311Y937548D01*
X753900Y938669D01*
X754555Y939753D01*
X755274Y940795D01*
X756055Y941792D01*
X756895Y942740D01*
X757790Y943635D01*
X758738Y944475D01*
X759735Y945256D01*
X760777Y945975D01*
X761861Y946630D01*
X762982Y947219D01*
X764137Y947739D01*
X765321Y948188D01*
X766530Y948565D01*
X767760Y948868D01*
X769006Y949096D01*
X770263Y949249D01*
X771527Y949325D01*
X772793Y949325D01*
X774057Y949249D01*
X775314Y949096D01*
X776560Y948868D01*
X777790Y948565D01*
X778999Y948188D01*
X780183Y947739D01*
X781338Y947219D01*
X782459Y946630D01*
X783543Y945975D01*
X784585Y945256D01*
X785582Y944475D01*
X786530Y943635D01*
X787425Y942740D01*
X788265Y941792D01*
X789046Y940795D01*
X789765Y939753D01*
X790420Y938669D01*
X791009Y937548D01*
X791529Y936393D01*
X791978Y935209D01*
X792355Y934000D01*
X792658Y932770D01*
X792886Y931524D01*
X793039Y930267D01*
X793115Y929003D01*
X793115Y927737D01*
X1124585Y870587D02*
X1124509Y869323D01*
X1124356Y868066D01*
X1124128Y866820D01*
X1123825Y865590D01*
X1123448Y864381D01*
X1122999Y863197D01*
X1122479Y862042D01*
X1121890Y860921D01*
X1121235Y859837D01*
X1120516Y858795D01*
X1119735Y857798D01*
X1118895Y856850D01*
X1118000Y855955D01*
X1117052Y855115D01*
X1116055Y854334D01*
X1115013Y853615D01*
X1113929Y852960D01*
X1112808Y852371D01*
X1111653Y851851D01*
X1110469Y851402D01*
X1109260Y851025D01*
X1108030Y850722D01*
X1106784Y850494D01*
X1105527Y850341D01*
X1104263Y850265D01*
X1102997Y850265D01*
X1101733Y850341D01*
X1100476Y850494D01*
X1099230Y850722D01*
X1098000Y851025D01*
X1096791Y851402D01*
X1095607Y851851D01*
X1094452Y852371D01*
X1093331Y852960D01*
X1092247Y853615D01*
X1091205Y854334D01*
X1090208Y855115D01*
X1089260Y855955D01*
X1088365Y856850D01*
X1087525Y857798D01*
X1086744Y858795D01*
X1086025Y859837D01*
X1085370Y860921D01*
X1084781Y862042D01*
X1084261Y863197D01*
X1083812Y864381D01*
X1083435Y865590D01*
X1083132Y866820D01*
X1082904Y868066D01*
X1082751Y869323D01*
X1082675Y870587D01*
X1082675Y871853D01*
X1082751Y873117D01*
X1082904Y874374D01*
X1083132Y875620D01*
X1083435Y876850D01*
X1083812Y878059D01*
X1084261Y879243D01*
X1084781Y880398D01*
X1085370Y881519D01*
X1086025Y882603D01*
X1086744Y883645D01*
X1087525Y884642D01*
X1088365Y885590D01*
X1089260Y886485D01*
X1090208Y887325D01*
X1091205Y888106D01*
X1092247Y888825D01*
X1093331Y889480D01*
X1094452Y890069D01*
X1095607Y890589D01*
X1096791Y891038D01*
X1098000Y891415D01*
X1099230Y891718D01*
X1100476Y891946D01*
X1101733Y892099D01*
X1102997Y892175D01*
X1104263Y892175D01*
X1105527Y892099D01*
X1106784Y891946D01*
X1108030Y891718D01*
X1109260Y891415D01*
X1110469Y891038D01*
X1111653Y890589D01*
X1112808Y890069D01*
X1113929Y889480D01*
X1115013Y888825D01*
X1116055Y888106D01*
X1117052Y887325D01*
X1118000Y886485D01*
X1118895Y885590D01*
X1119735Y884642D01*
X1120516Y883645D01*
X1121235Y882603D01*
X1121890Y881519D01*
X1122479Y880398D01*
X1122999Y879243D01*
X1123448Y878059D01*
X1123825Y876850D01*
X1124128Y875620D01*
X1124356Y874374D01*
X1124509Y873117D01*
X1124585Y871853D01*
X1124585Y870587D01*
X1136015Y272417D02*
X1135939Y271153D01*
X1135786Y269896D01*
X1135558Y268650D01*
X1135255Y267420D01*
X1134878Y266211D01*
X1134429Y265027D01*
X1133909Y263872D01*
X1133320Y262751D01*
X1132665Y261667D01*
X1131946Y260625D01*
X1131165Y259628D01*
X1130325Y258680D01*
X1129430Y257785D01*
X1128482Y256945D01*
X1127485Y256164D01*
X1126443Y255445D01*
X1125359Y254790D01*
X1124238Y254201D01*
X1123083Y253681D01*
X1121899Y253232D01*
X1120690Y252855D01*
X1119460Y252552D01*
X1118214Y252324D01*
X1116957Y252171D01*
X1115693Y252095D01*
X1114427Y252095D01*
X1113163Y252171D01*
X1111906Y252324D01*
X1110660Y252552D01*
X1109430Y252855D01*
X1108221Y253232D01*
X1107037Y253681D01*
X1105882Y254201D01*
X1104761Y254790D01*
X1103677Y255445D01*
X1102635Y256164D01*
X1101638Y256945D01*
X1100690Y257785D01*
X1099795Y258680D01*
X1098955Y259628D01*
X1098174Y260625D01*
X1097455Y261667D01*
X1096800Y262751D01*
X1096211Y263872D01*
X1095691Y265027D01*
X1095242Y266211D01*
X1094865Y267420D01*
X1094562Y268650D01*
X1094334Y269896D01*
X1094181Y271153D01*
X1094105Y272417D01*
X1094105Y273683D01*
X1094181Y274947D01*
X1094334Y276204D01*
X1094562Y277450D01*
X1094865Y278680D01*
X1095242Y279889D01*
X1095691Y281073D01*
X1096211Y282228D01*
X1096800Y283349D01*
X1097455Y284433D01*
X1098174Y285475D01*
X1098955Y286472D01*
X1099795Y287420D01*
X1100690Y288315D01*
X1101638Y289155D01*
X1102635Y289936D01*
X1103677Y290655D01*
X1104761Y291310D01*
X1105882Y291899D01*
X1107037Y292419D01*
X1108221Y292868D01*
X1109430Y293245D01*
X1110660Y293548D01*
X1111906Y293776D01*
X1113163Y293929D01*
X1114427Y294005D01*
X1115693Y294005D01*
X1116957Y293929D01*
X1118214Y293776D01*
X1119460Y293548D01*
X1120690Y293245D01*
X1121899Y292868D01*
X1123083Y292419D01*
X1124238Y291899D01*
X1125359Y291310D01*
X1126443Y290655D01*
X1127485Y289936D01*
X1128482Y289155D01*
X1129430Y288315D01*
X1130325Y287420D01*
X1131165Y286472D01*
X1131946Y285475D01*
X1132665Y284433D01*
X1133320Y283349D01*
X1133909Y282228D01*
X1134429Y281073D01*
X1134878Y279889D01*
X1135255Y278680D01*
X1135558Y277450D01*
X1135786Y276204D01*
X1135939Y274947D01*
X1136015Y273683D01*
X1136015Y272417D01*
X447675Y272417D02*
X447599Y271153D01*
X447446Y269896D01*
X447218Y268650D01*
X446915Y267420D01*
X446538Y266211D01*
X446089Y265027D01*
X445569Y263872D01*
X444980Y262751D01*
X444325Y261667D01*
X443606Y260625D01*
X442825Y259628D01*
X441985Y258680D01*
X441090Y257785D01*
X440142Y256945D01*
X439145Y256164D01*
X438103Y255445D01*
X437019Y254790D01*
X435898Y254201D01*
X434743Y253681D01*
X433559Y253232D01*
X432350Y252855D01*
X431120Y252552D01*
X429874Y252324D01*
X428617Y252171D01*
X427353Y252095D01*
X426087Y252095D01*
X424823Y252171D01*
X423566Y252324D01*
X422320Y252552D01*
X421090Y252855D01*
X419881Y253232D01*
X418697Y253681D01*
X417542Y254201D01*
X416421Y254790D01*
X415337Y255445D01*
X414295Y256164D01*
X413298Y256945D01*
X412350Y257785D01*
X411455Y258680D01*
X410615Y259628D01*
X409834Y260625D01*
X409115Y261667D01*
X408460Y262751D01*
X407871Y263872D01*
X407351Y265027D01*
X406902Y266211D01*
X406525Y267420D01*
X406222Y268650D01*
X405994Y269896D01*
X405841Y271153D01*
X405765Y272417D01*
X405765Y273683D01*
X405841Y274947D01*
X405994Y276204D01*
X406222Y277450D01*
X406525Y278680D01*
X406902Y279889D01*
X407351Y281073D01*
X407871Y282228D01*
X408460Y283349D01*
X409115Y284433D01*
X409834Y285475D01*
X410615Y286472D01*
X411455Y287420D01*
X412350Y288315D01*
X413298Y289155D01*
X414295Y289936D01*
X415337Y290655D01*
X416421Y291310D01*
X417542Y291899D01*
X418697Y292419D01*
X419881Y292868D01*
X421090Y293245D01*
X422320Y293548D01*
X423566Y293776D01*
X424823Y293929D01*
X426087Y294005D01*
X427353Y294005D01*
X428617Y293929D01*
X429874Y293776D01*
X431120Y293548D01*
X432350Y293245D01*
X433559Y292868D01*
X434743Y292419D01*
X435898Y291899D01*
X437019Y291310D01*
X438103Y290655D01*
X439145Y289936D01*
X440142Y289155D01*
X441090Y288315D01*
X441985Y287420D01*
X442825Y286472D01*
X443606Y285475D01*
X444325Y284433D01*
X444980Y283349D01*
X445569Y282228D01*
X446089Y281073D01*
X446538Y279889D01*
X446915Y278680D01*
X447218Y277450D01*
X447446Y276204D01*
X447599Y274947D01*
X447675Y273683D01*
X447675Y272417D01*
X781685Y666326D02*
X781618Y665480D01*
X781486Y664642D01*
X781288Y663818D01*
X781026Y663011D01*
X780701Y662227D01*
X780316Y661471D01*
X779873Y660748D01*
X779374Y660062D01*
X778823Y659417D01*
X778223Y658817D01*
X777578Y658266D01*
X776892Y657767D01*
X776169Y657324D01*
X775413Y656939D01*
X774629Y656614D01*
X773822Y656352D01*
X772998Y656154D01*
X772160Y656022D01*
X771314Y655955D01*
X770466Y655955D01*
X769620Y656022D01*
X768782Y656154D01*
X767958Y656352D01*
X767151Y656614D01*
X766367Y656939D01*
X765611Y657324D01*
X764888Y657767D01*
X764202Y658266D01*
X763557Y658817D01*
X762957Y659417D01*
X762406Y660062D01*
X761907Y660748D01*
X761464Y661471D01*
X761079Y662227D01*
X760754Y663011D01*
X760492Y663818D01*
X760294Y664642D01*
X760162Y665480D01*
X760095Y666326D01*
X760095Y667174D01*
X760162Y668020D01*
X760294Y668858D01*
X760492Y669682D01*
X760754Y670489D01*
X761079Y671273D01*
X761464Y672029D01*
X761907Y672752D01*
X762406Y673438D01*
X762957Y674083D01*
X763557Y674683D01*
X764202Y675234D01*
X764888Y675733D01*
X765611Y676176D01*
X766367Y676561D01*
X767151Y676886D01*
X767958Y677148D01*
X768782Y677346D01*
X769620Y677478D01*
X770466Y677545D01*
X771314Y677545D01*
X772160Y677478D01*
X772998Y677346D01*
X773822Y677148D01*
X774629Y676886D01*
X775413Y676561D01*
X776169Y676176D01*
X776892Y675733D01*
X777578Y675234D01*
X778223Y674683D01*
X778823Y674083D01*
X779374Y673438D01*
X779873Y672752D01*
X780316Y672029D01*
X780701Y671273D01*
X781026Y670489D01*
X781288Y669682D01*
X781486Y668858D01*
X781618Y668020D01*
X781685Y667174D01*
X781685Y666326D01*
X858520Y460976D02*
X858441Y458368D01*
X858284Y455764D01*
X858048Y453165D01*
X857733Y450576D01*
X857341Y447996D01*
X856870Y445430D01*
X856323Y442879D01*
X855698Y440346D01*
X854998Y437833D01*
X854222Y435342D01*
X853371Y432876D01*
X852445Y430437D01*
X851447Y428026D01*
X850376Y425647D01*
X849234Y423302D01*
X848022Y420991D01*
X846740Y418719D01*
X845390Y416486D01*
X843974Y414295D01*
X842492Y412148D01*
X840946Y410047D01*
X839337Y407993D01*
X837666Y405989D01*
X835936Y404036D01*
X834148Y402137D01*
X832303Y400292D01*
X830404Y398504D01*
X828451Y396774D01*
X826447Y395103D01*
X824393Y393494D01*
X822292Y391948D01*
X820145Y390466D01*
X817954Y389050D01*
X815721Y387700D01*
X813449Y386418D01*
X811138Y385206D01*
X808793Y384064D01*
X806414Y382993D01*
X804003Y381995D01*
X801564Y381069D01*
X799098Y380218D01*
X796607Y379442D01*
X794094Y378742D01*
X791561Y378117D01*
X789010Y377570D01*
X786444Y377099D01*
X783865Y376707D01*
X781275Y376392D01*
X778676Y376156D01*
X776072Y375999D01*
X773464Y375920D01*
X770856Y375920D01*
X768248Y375999D01*
X765644Y376156D01*
X763045Y376392D01*
X760456Y376707D01*
X757876Y377099D01*
X755310Y377570D01*
X752759Y378117D01*
X750226Y378742D01*
X747713Y379442D01*
X745222Y380218D01*
X742756Y381069D01*
X740317Y381995D01*
X737906Y382993D01*
X735527Y384064D01*
X733182Y385206D01*
X730871Y386418D01*
X728599Y387700D01*
X726366Y389050D01*
X724175Y390466D01*
X722028Y391948D01*
X719927Y393494D01*
X717873Y395103D01*
X715869Y396774D01*
X713916Y398504D01*
X712017Y400292D01*
X710172Y402137D01*
X708384Y404036D01*
X706654Y405989D01*
X704983Y407993D01*
X703374Y410047D01*
X701828Y412148D01*
X700346Y414295D01*
X698930Y416486D01*
X697580Y418719D01*
X696298Y420991D01*
X695086Y423302D01*
X693944Y425647D01*
X692873Y428026D01*
X691875Y430437D01*
X690949Y432876D01*
X690098Y435342D01*
X689322Y437833D01*
X688622Y440346D01*
X687997Y442879D01*
X687450Y445430D01*
X686979Y447996D01*
X686587Y450576D01*
X686272Y453165D01*
X686036Y455764D01*
X685879Y458368D01*
X685800Y460976D01*
X685800Y463584D01*
X685879Y466192D01*
X686036Y468796D01*
X686272Y471395D01*
X686587Y473985D01*
X686979Y476564D01*
X687450Y479130D01*
X687997Y481681D01*
X688622Y484214D01*
X689322Y486727D01*
X690098Y489218D01*
X690949Y491684D01*
X691875Y494123D01*
X692873Y496534D01*
X693944Y498913D01*
X695086Y501258D01*
X696298Y503569D01*
X697580Y505841D01*
X698930Y508074D01*
X700346Y510265D01*
X701828Y512412D01*
X703374Y514513D01*
X704983Y516567D01*
X706654Y518571D01*
X708384Y520524D01*
X710172Y522423D01*
X712017Y524268D01*
X713916Y526056D01*
X715869Y527786D01*
X717873Y529457D01*
X719927Y531066D01*
X722028Y532612D01*
X724175Y534094D01*
X726366Y535510D01*
X728599Y536860D01*
X730871Y538142D01*
X733182Y539354D01*
X735527Y540496D01*
X737906Y541567D01*
X740317Y542565D01*
X742756Y543491D01*
X745222Y544342D01*
X747713Y545118D01*
X750226Y545818D01*
X752759Y546443D01*
X755310Y546990D01*
X757876Y547461D01*
X760456Y547853D01*
X763045Y548168D01*
X765644Y548404D01*
X768248Y548561D01*
X770856Y548640D01*
X773464Y548640D01*
X776072Y548561D01*
X778676Y548404D01*
X781275Y548168D01*
X783865Y547853D01*
X786444Y547461D01*
X789010Y546990D01*
X791561Y546443D01*
X794094Y545818D01*
X796607Y545118D01*
X799098Y544342D01*
X801564Y543491D01*
X804003Y542565D01*
X806414Y541567D01*
X808793Y540496D01*
X811138Y539354D01*
X813449Y538142D01*
X815721Y536860D01*
X817954Y535510D01*
X820145Y534094D01*
X822292Y532612D01*
X824393Y531066D01*
X826447Y529457D01*
X828451Y527786D01*
X830404Y526056D01*
X832303Y524268D01*
X834148Y522423D01*
X835936Y520524D01*
X837666Y518571D01*
X839337Y516567D01*
X840946Y514513D01*
X842492Y512412D01*
X843974Y510265D01*
X845390Y508074D01*
X846740Y505841D01*
X848022Y503569D01*
X849234Y501258D01*
X850376Y498913D01*
X851447Y496534D01*
X852445Y494123D01*
X853371Y491684D01*
X854222Y489218D01*
X854998Y486727D01*
X855698Y484214D01*
X856323Y481681D01*
X856870Y479130D01*
X857341Y476564D01*
X857733Y473985D01*
X858048Y471395D01*
X858284Y468796D01*
X858441Y466192D01*
X858520Y463584D01*
X858520Y460976D01*
X927575Y761563D02*
X927499Y760694D01*
X927347Y759834D01*
X927121Y758990D01*
X926823Y758170D01*
X926454Y757378D01*
X926017Y756622D01*
X925516Y755907D01*
X924955Y755238D01*
X924337Y754620D01*
X923668Y754059D01*
X922953Y753558D01*
X922197Y753121D01*
X921405Y752752D01*
X920585Y752454D01*
X919741Y752228D01*
X918882Y752076D01*
X918012Y752000D01*
X917138Y752000D01*
X916269Y752076D01*
X915409Y752228D01*
X914565Y752454D01*
X913745Y752752D01*
X912953Y753121D01*
X912197Y753558D01*
X911482Y754059D01*
X910813Y754620D01*
X910195Y755238D01*
X909634Y755907D01*
X909133Y756622D01*
X908696Y757378D01*
X908327Y758170D01*
X908029Y758990D01*
X907803Y759834D01*
X907651Y760694D01*
X907575Y761563D01*
X907575Y762437D01*
X907651Y763307D01*
X907803Y764166D01*
X908029Y765010D01*
X908327Y765830D01*
X908696Y766622D01*
X909133Y767378D01*
X909634Y768093D01*
X910195Y768762D01*
X910813Y769380D01*
X911482Y769941D01*
X912197Y770442D01*
X912953Y770879D01*
X913745Y771248D01*
X914565Y771546D01*
X915409Y771772D01*
X916269Y771924D01*
X917138Y772000D01*
X918012Y772000D01*
X918882Y771924D01*
X919741Y771772D01*
X920585Y771546D01*
X921405Y771248D01*
X922197Y770879D01*
X922953Y770442D01*
X923668Y769941D01*
X924337Y769380D01*
X924955Y768762D01*
X925516Y768093D01*
X926017Y767378D01*
X926454Y766622D01*
X926823Y765830D01*
X927121Y765010D01*
X927347Y764166D01*
X927499Y763307D01*
X927575Y762437D01*
X927575Y761563D01*
X1058385Y800933D02*
X1058309Y800064D01*
X1058157Y799204D01*
X1057931Y798360D01*
X1057633Y797540D01*
X1057264Y796748D01*
X1056827Y795992D01*
X1056326Y795277D01*
X1055765Y794608D01*
X1055147Y793990D01*
X1054478Y793429D01*
X1053763Y792928D01*
X1053007Y792491D01*
X1052215Y792122D01*
X1051395Y791824D01*
X1050551Y791598D01*
X1049692Y791446D01*
X1048822Y791370D01*
X1047948Y791370D01*
X1047079Y791446D01*
X1046219Y791598D01*
X1045375Y791824D01*
X1044555Y792122D01*
X1043763Y792491D01*
X1043007Y792928D01*
X1042292Y793429D01*
X1041623Y793990D01*
X1041005Y794608D01*
X1040444Y795277D01*
X1039943Y795992D01*
X1039506Y796748D01*
X1039137Y797540D01*
X1038839Y798360D01*
X1038613Y799204D01*
X1038461Y800064D01*
X1038385Y800933D01*
X1038385Y801807D01*
X1038461Y802677D01*
X1038613Y803536D01*
X1038839Y804380D01*
X1039137Y805200D01*
X1039506Y805992D01*
X1039943Y806748D01*
X1040444Y807463D01*
X1041005Y808132D01*
X1041623Y808750D01*
X1042292Y809311D01*
X1043007Y809812D01*
X1043763Y810249D01*
X1044555Y810618D01*
X1045375Y810916D01*
X1046219Y811142D01*
X1047079Y811294D01*
X1047948Y811370D01*
X1048822Y811370D01*
X1049692Y811294D01*
X1050551Y811142D01*
X1051395Y810916D01*
X1052215Y810618D01*
X1053007Y810249D01*
X1053763Y809812D01*
X1054478Y809311D01*
X1055147Y808750D01*
X1055765Y808132D01*
X1056326Y807463D01*
X1056827Y806748D01*
X1057264Y805992D01*
X1057633Y805200D01*
X1057931Y804380D01*
X1058157Y803536D01*
X1058309Y802677D01*
X1058385Y801807D01*
X1058385Y800933D01*
X1045083Y710602D02*
X1045022Y709981D01*
X1044900Y709369D01*
X1044719Y708772D01*
X1044480Y708196D01*
X1044186Y707646D01*
X1043840Y707127D01*
X1043444Y706645D01*
X1043003Y706204D01*
X1042520Y705808D01*
X1042002Y705461D01*
X1041451Y705167D01*
X1040875Y704928D01*
X1040278Y704747D01*
X1039666Y704625D01*
X1039045Y704564D01*
X1038421Y704564D01*
X1037800Y704625D01*
X1037188Y704747D01*
X1036591Y704928D01*
X1036015Y705167D01*
X1035465Y705461D01*
X1034946Y705808D01*
X1034463Y706204D01*
X1034022Y706645D01*
X1033626Y707127D01*
X1033280Y707646D01*
X1032986Y708196D01*
X1032747Y708772D01*
X1032566Y709369D01*
X1032444Y709981D01*
X1032383Y710602D01*
X1032383Y711226D01*
X1032444Y711847D01*
X1032566Y712459D01*
X1032747Y713056D01*
X1032986Y713633D01*
X1033280Y714183D01*
X1033626Y714702D01*
X1034022Y715184D01*
X1034463Y715625D01*
X1034946Y716021D01*
X1035465Y716367D01*
X1036015Y716662D01*
X1036591Y716900D01*
X1037188Y717081D01*
X1037800Y717203D01*
X1038421Y717264D01*
X1039045Y717264D01*
X1039666Y717203D01*
X1040278Y717081D01*
X1040875Y716900D01*
X1041451Y716662D01*
X1042002Y716367D01*
X1042520Y716021D01*
X1043003Y715625D01*
X1043444Y715184D01*
X1043840Y714702D01*
X1044186Y714183D01*
X1044480Y713633D01*
X1044719Y713056D01*
X1044900Y712459D01*
X1045022Y711847D01*
X1045083Y711226D01*
X1045083Y710602D01*
X1045083Y765149D02*
X1045022Y764528D01*
X1044900Y763916D01*
X1044719Y763319D01*
X1044480Y762743D01*
X1044186Y762192D01*
X1043840Y761674D01*
X1043444Y761191D01*
X1043003Y760750D01*
X1042520Y760354D01*
X1042002Y760008D01*
X1041451Y759714D01*
X1040875Y759475D01*
X1040278Y759294D01*
X1039666Y759172D01*
X1039045Y759111D01*
X1038421Y759111D01*
X1037800Y759172D01*
X1037188Y759294D01*
X1036591Y759475D01*
X1036015Y759714D01*
X1035465Y760008D01*
X1034946Y760354D01*
X1034463Y760750D01*
X1034022Y761191D01*
X1033626Y761674D01*
X1033280Y762192D01*
X1032986Y762743D01*
X1032747Y763319D01*
X1032566Y763916D01*
X1032444Y764528D01*
X1032383Y765149D01*
X1032383Y765773D01*
X1032444Y766394D01*
X1032566Y767006D01*
X1032747Y767603D01*
X1032986Y768179D01*
X1033280Y768729D01*
X1033626Y769248D01*
X1034022Y769730D01*
X1034463Y770171D01*
X1034946Y770567D01*
X1035465Y770914D01*
X1036015Y771208D01*
X1036591Y771447D01*
X1037188Y771628D01*
X1037800Y771750D01*
X1038421Y771811D01*
X1039045Y771811D01*
X1039666Y771750D01*
X1040278Y771628D01*
X1040875Y771447D01*
X1041451Y771208D01*
X1042002Y770914D01*
X1042520Y770567D01*
X1043003Y770171D01*
X1043444Y769730D01*
X1043840Y769248D01*
X1044186Y768729D01*
X1044480Y768179D01*
X1044719Y767603D01*
X1044900Y767006D01*
X1045022Y766394D01*
X1045083Y765773D01*
X1045083Y765149D01*
X661988Y976186D02*
X661910Y975303D01*
X661756Y974429D01*
X661527Y973572D01*
X661223Y972738D01*
X660848Y971934D01*
X660405Y971166D01*
X659896Y970439D01*
X659325Y969759D01*
X658698Y969132D01*
X658018Y968562D01*
X657292Y968053D01*
X656523Y967609D01*
X655719Y967234D01*
X654886Y966931D01*
X654029Y966701D01*
X653155Y966547D01*
X652271Y966470D01*
X651384Y966470D01*
X650500Y966547D01*
X649626Y966701D01*
X648769Y966931D01*
X647936Y967234D01*
X647132Y967609D01*
X646363Y968053D01*
X645637Y968562D01*
X644957Y969132D01*
X644330Y969759D01*
X643759Y970439D01*
X643250Y971166D01*
X642807Y971934D01*
X642432Y972738D01*
X642129Y973572D01*
X641899Y974429D01*
X641745Y975303D01*
X641668Y976186D01*
X641668Y977074D01*
X641745Y977957D01*
X641899Y978831D01*
X642129Y979688D01*
X642432Y980522D01*
X642807Y981326D01*
X643250Y982094D01*
X643759Y982821D01*
X644330Y983501D01*
X644957Y984128D01*
X645637Y984698D01*
X646363Y985207D01*
X647132Y985651D01*
X647936Y986026D01*
X648769Y986329D01*
X649626Y986559D01*
X650500Y986713D01*
X651384Y986790D01*
X652271Y986790D01*
X653155Y986713D01*
X654029Y986559D01*
X654886Y986329D01*
X655719Y986026D01*
X656523Y985651D01*
X657292Y985207D01*
X658018Y984698D01*
X658698Y984128D01*
X659325Y983501D01*
X659896Y982821D01*
X660405Y982094D01*
X660848Y981326D01*
X661223Y980522D01*
X661527Y979688D01*
X661756Y978831D01*
X661910Y977957D01*
X661988Y977074D01*
X661988Y976186D01*
X726440Y976504D02*
X726363Y975620D01*
X726209Y974746D01*
X725979Y973889D01*
X725676Y973056D01*
X725301Y972252D01*
X724857Y971483D01*
X724348Y970757D01*
X723778Y970077D01*
X723151Y969450D01*
X722471Y968879D01*
X721744Y968370D01*
X720976Y967927D01*
X720172Y967552D01*
X719338Y967249D01*
X718481Y967019D01*
X717607Y966865D01*
X716724Y966788D01*
X715836Y966788D01*
X714953Y966865D01*
X714079Y967019D01*
X713222Y967249D01*
X712388Y967552D01*
X711584Y967927D01*
X710816Y968370D01*
X710089Y968879D01*
X709409Y969450D01*
X708782Y970077D01*
X708212Y970757D01*
X707703Y971483D01*
X707259Y972252D01*
X706884Y973056D01*
X706581Y973889D01*
X706351Y974746D01*
X706197Y975620D01*
X706120Y976504D01*
X706120Y977391D01*
X706197Y978275D01*
X706351Y979149D01*
X706581Y980006D01*
X706884Y980839D01*
X707259Y981643D01*
X707703Y982412D01*
X708212Y983138D01*
X708782Y983818D01*
X709409Y984445D01*
X710089Y985016D01*
X710816Y985525D01*
X711584Y985968D01*
X712388Y986343D01*
X713222Y986647D01*
X714079Y986876D01*
X714953Y987030D01*
X715836Y987108D01*
X716724Y987108D01*
X717607Y987030D01*
X718481Y986876D01*
X719338Y986647D01*
X720172Y986343D01*
X720976Y985968D01*
X721744Y985525D01*
X722471Y985016D01*
X723151Y984445D01*
X723778Y983818D01*
X724348Y983138D01*
X724857Y982412D01*
X725301Y981643D01*
X725676Y980839D01*
X725979Y980006D01*
X726209Y979149D01*
X726363Y978275D01*
X726440Y977391D01*
X726440Y976504D01*
X460375Y870587D02*
X460299Y869323D01*
X460146Y868066D01*
X459918Y866820D01*
X459615Y865590D01*
X459238Y864381D01*
X458789Y863197D01*
X458269Y862042D01*
X457680Y860921D01*
X457025Y859837D01*
X456306Y858795D01*
X455525Y857798D01*
X454685Y856850D01*
X453790Y855955D01*
X452842Y855115D01*
X451845Y854334D01*
X450803Y853615D01*
X449719Y852960D01*
X448598Y852371D01*
X447443Y851851D01*
X446259Y851402D01*
X445050Y851025D01*
X443820Y850722D01*
X442574Y850494D01*
X441317Y850341D01*
X440053Y850265D01*
X438787Y850265D01*
X437523Y850341D01*
X436266Y850494D01*
X435020Y850722D01*
X433790Y851025D01*
X432581Y851402D01*
X431397Y851851D01*
X430242Y852371D01*
X429121Y852960D01*
X428037Y853615D01*
X426995Y854334D01*
X425998Y855115D01*
X425050Y855955D01*
X424155Y856850D01*
X423315Y857798D01*
X422534Y858795D01*
X421815Y859837D01*
X421160Y860921D01*
X420571Y862042D01*
X420051Y863197D01*
X419602Y864381D01*
X419225Y865590D01*
X418922Y866820D01*
X418694Y868066D01*
X418541Y869323D01*
X418465Y870587D01*
X418465Y871853D01*
X418541Y873117D01*
X418694Y874374D01*
X418922Y875620D01*
X419225Y876850D01*
X419602Y878059D01*
X420051Y879243D01*
X420571Y880398D01*
X421160Y881519D01*
X421815Y882603D01*
X422534Y883645D01*
X423315Y884642D01*
X424155Y885590D01*
X425050Y886485D01*
X425998Y887325D01*
X426995Y888106D01*
X428037Y888825D01*
X429121Y889480D01*
X430242Y890069D01*
X431397Y890589D01*
X432581Y891038D01*
X433790Y891415D01*
X435020Y891718D01*
X436266Y891946D01*
X437523Y892099D01*
X438787Y892175D01*
X440053Y892175D01*
X441317Y892099D01*
X442574Y891946D01*
X443820Y891718D01*
X445050Y891415D01*
X446259Y891038D01*
X447443Y890589D01*
X448598Y890069D01*
X449719Y889480D01*
X450803Y888825D01*
X451845Y888106D01*
X452842Y887325D01*
X453790Y886485D01*
X454685Y885590D01*
X455525Y884642D01*
X456306Y883645D01*
X457025Y882603D01*
X457680Y881519D01*
X458269Y880398D01*
X458789Y879243D01*
X459238Y878059D01*
X459615Y876850D01*
X459918Y875620D01*
X460146Y874374D01*
X460299Y873117D01*
X460375Y871853D01*
X460375Y870587D01*
X793115Y927737D02*
X793039Y926473D01*
X792886Y925216D01*
X792658Y923970D01*
X792355Y922740D01*
X791978Y921531D01*
X791529Y920347D01*
X791009Y919192D01*
X790420Y918071D01*
X789765Y916987D01*
X789046Y915945D01*
X788265Y914948D01*
X787425Y914000D01*
X786530Y913105D01*
X785582Y912265D01*
X784585Y911484D01*
X783543Y910765D01*
X782459Y910110D01*
X781338Y909521D01*
X780183Y909001D01*
X778999Y908552D01*
X777790Y908175D01*
X776560Y907872D01*
X775314Y907644D01*
X774057Y907491D01*
X772793Y907415D01*
X771527Y907415D01*
X770263Y907491D01*
X769006Y907644D01*
X767760Y907872D01*
X766530Y908175D01*
X765321Y908552D01*
X764137Y909001D01*
X762982Y909521D01*
X761861Y910110D01*
X760777Y910765D01*
X759735Y911484D01*
X758738Y912265D01*
X757790Y913105D01*
X756895Y914000D01*
X756055Y914948D01*
X755274Y915945D01*
X754555Y916987D01*
X753900Y918071D01*
X753311Y919192D01*
X752791Y920347D01*
X752342Y921531D01*
X751965Y922740D01*
X751662Y923970D01*
X751434Y925216D01*
X751281Y926473D01*
X751205Y927737D01*
X751205Y929003D01*
X751281Y930267D01*
X751434Y931524D01*
X751662Y932770D01*
X751965Y934000D01*
X752342Y935209D01*
X752791Y936393D01*
X753311Y937548D01*
X753900Y938669D01*
X754555Y939753D01*
X755274Y940795D01*
X756055Y941792D01*
X756895Y942740D01*
X757790Y943635D01*
X758738Y944475D01*
X759735Y945256D01*
X760777Y945975D01*
X761861Y946630D01*
X762982Y947219D01*
X764137Y947739D01*
X765321Y948188D01*
X766530Y948565D01*
X767760Y948868D01*
X769006Y949096D01*
X770263Y949249D01*
X771527Y949325D01*
X772793Y949325D01*
X774057Y949249D01*
X775314Y949096D01*
X776560Y948868D01*
X777790Y948565D01*
X778999Y948188D01*
X780183Y947739D01*
X781338Y947219D01*
X782459Y946630D01*
X783543Y945975D01*
X784585Y945256D01*
X785582Y944475D01*
X786530Y943635D01*
X787425Y942740D01*
X788265Y941792D01*
X789046Y940795D01*
X789765Y939753D01*
X790420Y938669D01*
X791009Y937548D01*
X791529Y936393D01*
X791978Y935209D01*
X792355Y934000D01*
X792658Y932770D01*
X792886Y931524D01*
X793039Y930267D01*
X793115Y929003D01*
X793115Y927737D01*
X1124585Y870587D02*
X1124509Y869323D01*
X1124356Y868066D01*
X1124128Y866820D01*
X1123825Y865590D01*
X1123448Y864381D01*
X1122999Y863197D01*
X1122479Y862042D01*
X1121890Y860921D01*
X1121235Y859837D01*
X1120516Y858795D01*
X1119735Y857798D01*
X1118895Y856850D01*
X1118000Y855955D01*
X1117052Y855115D01*
X1116055Y854334D01*
X1115013Y853615D01*
X1113929Y852960D01*
X1112808Y852371D01*
X1111653Y851851D01*
X1110469Y851402D01*
X1109260Y851025D01*
X1108030Y850722D01*
X1106784Y850494D01*
X1105527Y850341D01*
X1104263Y850265D01*
X1102997Y850265D01*
X1101733Y850341D01*
X1100476Y850494D01*
X1099230Y850722D01*
X1098000Y851025D01*
X1096791Y851402D01*
X1095607Y851851D01*
X1094452Y852371D01*
X1093331Y852960D01*
X1092247Y853615D01*
X1091205Y854334D01*
X1090208Y855115D01*
X1089260Y855955D01*
X1088365Y856850D01*
X1087525Y857798D01*
X1086744Y858795D01*
X1086025Y859837D01*
X1085370Y860921D01*
X1084781Y862042D01*
X1084261Y863197D01*
X1083812Y864381D01*
X1083435Y865590D01*
X1083132Y866820D01*
X1082904Y868066D01*
X1082751Y869323D01*
X1082675Y870587D01*
X1082675Y871853D01*
X1082751Y873117D01*
X1082904Y874374D01*
X1083132Y875620D01*
X1083435Y876850D01*
X1083812Y878059D01*
X1084261Y879243D01*
X1084781Y880398D01*
X1085370Y881519D01*
X1086025Y882603D01*
X1086744Y883645D01*
X1087525Y884642D01*
X1088365Y885590D01*
X1089260Y886485D01*
X1090208Y887325D01*
X1091205Y888106D01*
X1092247Y888825D01*
X1093331Y889480D01*
X1094452Y890069D01*
X1095607Y890589D01*
X1096791Y891038D01*
X1098000Y891415D01*
X1099230Y891718D01*
X1100476Y891946D01*
X1101733Y892099D01*
X1102997Y892175D01*
X1104263Y892175D01*
X1105527Y892099D01*
X1106784Y891946D01*
X1108030Y891718D01*
X1109260Y891415D01*
X1110469Y891038D01*
X1111653Y890589D01*
X1112808Y890069D01*
X1113929Y889480D01*
X1115013Y888825D01*
X1116055Y888106D01*
X1117052Y887325D01*
X1118000Y886485D01*
X1118895Y885590D01*
X1119735Y884642D01*
X1120516Y883645D01*
X1121235Y882603D01*
X1121890Y881519D01*
X1122479Y880398D01*
X1122999Y879243D01*
X1123448Y878059D01*
X1123825Y876850D01*
X1124128Y875620D01*
X1124356Y874374D01*
X1124509Y873117D01*
X1124585Y871853D01*
X1124585Y870587D01*
X1136015Y272417D02*
X1135939Y271153D01*
X1135786Y269896D01*
X1135558Y268650D01*
X1135255Y267420D01*
X1134878Y266211D01*
X1134429Y265027D01*
X1133909Y263872D01*
X1133320Y262751D01*
X1132665Y261667D01*
X1131946Y260625D01*
X1131165Y259628D01*
X1130325Y258680D01*
X1129430Y257785D01*
X1128482Y256945D01*
X1127485Y256164D01*
X1126443Y255445D01*
X1125359Y254790D01*
X1124238Y254201D01*
X1123083Y253681D01*
X1121899Y253232D01*
X1120690Y252855D01*
X1119460Y252552D01*
X1118214Y252324D01*
X1116957Y252171D01*
X1115693Y252095D01*
X1114427Y252095D01*
X1113163Y252171D01*
X1111906Y252324D01*
X1110660Y252552D01*
X1109430Y252855D01*
X1108221Y253232D01*
X1107037Y253681D01*
X1105882Y254201D01*
X1104761Y254790D01*
X1103677Y255445D01*
X1102635Y256164D01*
X1101638Y256945D01*
X1100690Y257785D01*
X1099795Y258680D01*
X1098955Y259628D01*
X1098174Y260625D01*
X1097455Y261667D01*
X1096800Y262751D01*
X1096211Y263872D01*
X1095691Y265027D01*
X1095242Y266211D01*
X1094865Y267420D01*
X1094562Y268650D01*
X1094334Y269896D01*
X1094181Y271153D01*
X1094105Y272417D01*
X1094105Y273683D01*
X1094181Y274947D01*
X1094334Y276204D01*
X1094562Y277450D01*
X1094865Y278680D01*
X1095242Y279889D01*
X1095691Y281073D01*
X1096211Y282228D01*
X1096800Y283349D01*
X1097455Y284433D01*
X1098174Y285475D01*
X1098955Y286472D01*
X1099795Y287420D01*
X1100690Y288315D01*
X1101638Y289155D01*
X1102635Y289936D01*
X1103677Y290655D01*
X1104761Y291310D01*
X1105882Y291899D01*
X1107037Y292419D01*
X1108221Y292868D01*
X1109430Y293245D01*
X1110660Y293548D01*
X1111906Y293776D01*
X1113163Y293929D01*
X1114427Y294005D01*
X1115693Y294005D01*
X1116957Y293929D01*
X1118214Y293776D01*
X1119460Y293548D01*
X1120690Y293245D01*
X1121899Y292868D01*
X1123083Y292419D01*
X1124238Y291899D01*
X1125359Y291310D01*
X1126443Y290655D01*
X1127485Y289936D01*
X1128482Y289155D01*
X1129430Y288315D01*
X1130325Y287420D01*
X1131165Y286472D01*
X1131946Y285475D01*
X1132665Y284433D01*
X1133320Y283349D01*
X1133909Y282228D01*
X1134429Y281073D01*
X1134878Y279889D01*
X1135255Y278680D01*
X1135558Y277450D01*
X1135786Y276204D01*
X1135939Y274947D01*
X1136015Y273683D01*
X1136015Y272417D01*
X447675Y272417D02*
X447599Y271153D01*
X447446Y269896D01*
X447218Y268650D01*
X446915Y267420D01*
X446538Y266211D01*
X446089Y265027D01*
X445569Y263872D01*
X444980Y262751D01*
X444325Y261667D01*
X443606Y260625D01*
X442825Y259628D01*
X441985Y258680D01*
X441090Y257785D01*
X440142Y256945D01*
X439145Y256164D01*
X438103Y255445D01*
X437019Y254790D01*
X435898Y254201D01*
X434743Y253681D01*
X433559Y253232D01*
X432350Y252855D01*
X431120Y252552D01*
X429874Y252324D01*
X428617Y252171D01*
X427353Y252095D01*
X426087Y252095D01*
X424823Y252171D01*
X423566Y252324D01*
X422320Y252552D01*
X421090Y252855D01*
X419881Y253232D01*
X418697Y253681D01*
X417542Y254201D01*
X416421Y254790D01*
X415337Y255445D01*
X414295Y256164D01*
X413298Y256945D01*
X412350Y257785D01*
X411455Y258680D01*
X410615Y259628D01*
X409834Y260625D01*
X409115Y261667D01*
X408460Y262751D01*
X407871Y263872D01*
X407351Y265027D01*
X406902Y266211D01*
X406525Y267420D01*
X406222Y268650D01*
X405994Y269896D01*
X405841Y271153D01*
X405765Y272417D01*
X405765Y273683D01*
X405841Y274947D01*
X405994Y276204D01*
X406222Y277450D01*
X406525Y278680D01*
X406902Y279889D01*
X407351Y281073D01*
X407871Y282228D01*
X408460Y283349D01*
X409115Y284433D01*
X409834Y285475D01*
X410615Y286472D01*
X411455Y287420D01*
X412350Y288315D01*
X413298Y289155D01*
X414295Y289936D01*
X415337Y290655D01*
X416421Y291310D01*
X417542Y291899D01*
X418697Y292419D01*
X419881Y292868D01*
X421090Y293245D01*
X422320Y293548D01*
X423566Y293776D01*
X424823Y293929D01*
X426087Y294005D01*
X427353Y294005D01*
X428617Y293929D01*
X429874Y293776D01*
X431120Y293548D01*
X432350Y293245D01*
X433559Y292868D01*
X434743Y292419D01*
X435898Y291899D01*
X437019Y291310D01*
X438103Y290655D01*
X439145Y289936D01*
X440142Y289155D01*
X441090Y288315D01*
X441985Y287420D01*
X442825Y286472D01*
X443606Y285475D01*
X444325Y284433D01*
X444980Y283349D01*
X445569Y282228D01*
X446089Y281073D01*
X446538Y279889D01*
X446915Y278680D01*
X447218Y277450D01*
X447446Y276204D01*
X447599Y274947D01*
X447675Y273683D01*
X447675Y272417D01*
X781685Y666326D02*
X781618Y665480D01*
X781486Y664642D01*
X781288Y663818D01*
X781026Y663011D01*
X780701Y662227D01*
X780316Y661471D01*
X779873Y660748D01*
X779374Y660062D01*
X778823Y659417D01*
X778223Y658817D01*
X777578Y658266D01*
X776892Y657767D01*
X776169Y657324D01*
X775413Y656939D01*
X774629Y656614D01*
X773822Y656352D01*
X772998Y656154D01*
X772160Y656022D01*
X771314Y655955D01*
X770466Y655955D01*
X769620Y656022D01*
X768782Y656154D01*
X767958Y656352D01*
X767151Y656614D01*
X766367Y656939D01*
X765611Y657324D01*
X764888Y657767D01*
X764202Y658266D01*
X763557Y658817D01*
X762957Y659417D01*
X762406Y660062D01*
X761907Y660748D01*
X761464Y661471D01*
X761079Y662227D01*
X760754Y663011D01*
X760492Y663818D01*
X760294Y664642D01*
X760162Y665480D01*
X760095Y666326D01*
X760095Y667174D01*
X760162Y668020D01*
X760294Y668858D01*
X760492Y669682D01*
X760754Y670489D01*
X761079Y671273D01*
X761464Y672029D01*
X761907Y672752D01*
X762406Y673438D01*
X762957Y674083D01*
X763557Y674683D01*
X764202Y675234D01*
X764888Y675733D01*
X765611Y676176D01*
X766367Y676561D01*
X767151Y676886D01*
X767958Y677148D01*
X768782Y677346D01*
X769620Y677478D01*
X770466Y677545D01*
X771314Y677545D01*
X772160Y677478D01*
X772998Y677346D01*
X773822Y677148D01*
X774629Y676886D01*
X775413Y676561D01*
X776169Y676176D01*
X776892Y675733D01*
X777578Y675234D01*
X778223Y674683D01*
X778823Y674083D01*
X779374Y673438D01*
X779873Y672752D01*
X780316Y672029D01*
X780701Y671273D01*
X781026Y670489D01*
X781288Y669682D01*
X781486Y668858D01*
X781618Y668020D01*
X781685Y667174D01*
X781685Y666326D01*
X858520Y460976D02*
X858441Y458368D01*
X858284Y455764D01*
X858048Y453165D01*
X857733Y450576D01*
X857341Y447996D01*
X856870Y445430D01*
X856323Y442879D01*
X855698Y440346D01*
X854998Y437833D01*
X854222Y435342D01*
X853371Y432876D01*
X852445Y430437D01*
X851447Y428026D01*
X850376Y425647D01*
X849234Y423302D01*
X848022Y420991D01*
X846740Y418719D01*
X845390Y416486D01*
X843974Y414295D01*
X842492Y412148D01*
X840946Y410047D01*
X839337Y407993D01*
X837666Y405989D01*
X835936Y404036D01*
X834148Y402137D01*
X832303Y400292D01*
X830404Y398504D01*
X828451Y396774D01*
X826447Y395103D01*
X824393Y393494D01*
X822292Y391948D01*
X820145Y390466D01*
X817954Y389050D01*
X815721Y387700D01*
X813449Y386418D01*
X811138Y385206D01*
X808793Y384064D01*
X806414Y382993D01*
X804003Y381995D01*
X801564Y381069D01*
X799098Y380218D01*
X796607Y379442D01*
X794094Y378742D01*
X791561Y378117D01*
X789010Y377570D01*
X786444Y377099D01*
X783865Y376707D01*
X781275Y376392D01*
X778676Y376156D01*
X776072Y375999D01*
X773464Y375920D01*
X770856Y375920D01*
X768248Y375999D01*
X765644Y376156D01*
X763045Y376392D01*
X760456Y376707D01*
X757876Y377099D01*
X755310Y377570D01*
X752759Y378117D01*
X750226Y378742D01*
X747713Y379442D01*
X745222Y380218D01*
X742756Y381069D01*
X740317Y381995D01*
X737906Y382993D01*
X735527Y384064D01*
X733182Y385206D01*
X730871Y386418D01*
X728599Y387700D01*
X726366Y389050D01*
X724175Y390466D01*
X722028Y391948D01*
X719927Y393494D01*
X717873Y395103D01*
X715869Y396774D01*
X713916Y398504D01*
X712017Y400292D01*
X710172Y402137D01*
X708384Y404036D01*
X706654Y405989D01*
X704983Y407993D01*
X703374Y410047D01*
X701828Y412148D01*
X700346Y414295D01*
X698930Y416486D01*
X697580Y418719D01*
X696298Y420991D01*
X695086Y423302D01*
X693944Y425647D01*
X692873Y428026D01*
X691875Y430437D01*
X690949Y432876D01*
X690098Y435342D01*
X689322Y437833D01*
X688622Y440346D01*
X687997Y442879D01*
X687450Y445430D01*
X686979Y447996D01*
X686587Y450576D01*
X686272Y453165D01*
X686036Y455764D01*
X685879Y458368D01*
X685800Y460976D01*
X685800Y463584D01*
X685879Y466192D01*
X686036Y468796D01*
X686272Y471395D01*
X686587Y473985D01*
X686979Y476564D01*
X687450Y479130D01*
X687997Y481681D01*
X688622Y484214D01*
X689322Y486727D01*
X690098Y489218D01*
X690949Y491684D01*
X691875Y494123D01*
X692873Y496534D01*
X693944Y498913D01*
X695086Y501258D01*
X696298Y503569D01*
X697580Y505841D01*
X698930Y508074D01*
X700346Y510265D01*
X701828Y512412D01*
X703374Y514513D01*
X704983Y516567D01*
X706654Y518571D01*
X708384Y520524D01*
X710172Y522423D01*
X712017Y524268D01*
X713916Y526056D01*
X715869Y527786D01*
X717873Y529457D01*
X719927Y531066D01*
X722028Y532612D01*
X724175Y534094D01*
X726366Y535510D01*
X728599Y536860D01*
X730871Y538142D01*
X733182Y539354D01*
X735527Y540496D01*
X737906Y541567D01*
X740317Y542565D01*
X742756Y543491D01*
X745222Y544342D01*
X747713Y545118D01*
X750226Y545818D01*
X752759Y546443D01*
X755310Y546990D01*
X757876Y547461D01*
X760456Y547853D01*
X763045Y548168D01*
X765644Y548404D01*
X768248Y548561D01*
X770856Y548640D01*
X773464Y548640D01*
X776072Y548561D01*
X778676Y548404D01*
X781275Y548168D01*
X783865Y547853D01*
X786444Y547461D01*
X789010Y546990D01*
X791561Y546443D01*
X794094Y545818D01*
X796607Y545118D01*
X799098Y544342D01*
X801564Y543491D01*
X804003Y542565D01*
X806414Y541567D01*
X808793Y540496D01*
X811138Y539354D01*
X813449Y538142D01*
X815721Y536860D01*
X817954Y535510D01*
X820145Y534094D01*
X822292Y532612D01*
X824393Y531066D01*
X826447Y529457D01*
X828451Y527786D01*
X830404Y526056D01*
X832303Y524268D01*
X834148Y522423D01*
X835936Y520524D01*
X837666Y518571D01*
X839337Y516567D01*
X840946Y514513D01*
X842492Y512412D01*
X843974Y510265D01*
X845390Y508074D01*
X846740Y505841D01*
X848022Y503569D01*
X849234Y501258D01*
X850376Y498913D01*
X851447Y496534D01*
X852445Y494123D01*
X853371Y491684D01*
X854222Y489218D01*
X854998Y486727D01*
X855698Y484214D01*
X856323Y481681D01*
X856870Y479130D01*
X857341Y476564D01*
X857733Y473985D01*
X858048Y471395D01*
X858284Y468796D01*
X858441Y466192D01*
X858520Y463584D01*
X858520Y460976D01*
X927575Y761563D02*
X927499Y760694D01*
X927347Y759834D01*
X927121Y758990D01*
X926823Y758170D01*
X926454Y757378D01*
X926017Y756622D01*
X925516Y755907D01*
X924955Y755238D01*
X924337Y754620D01*
X923668Y754059D01*
X922953Y753558D01*
X922197Y753121D01*
X921405Y752752D01*
X920585Y752454D01*
X919741Y752228D01*
X918882Y752076D01*
X918012Y752000D01*
X917138Y752000D01*
X916269Y752076D01*
X915409Y752228D01*
X914565Y752454D01*
X913745Y752752D01*
X912953Y753121D01*
X912197Y753558D01*
X911482Y754059D01*
X910813Y754620D01*
X910195Y755238D01*
X909634Y755907D01*
X909133Y756622D01*
X908696Y757378D01*
X908327Y758170D01*
X908029Y758990D01*
X907803Y759834D01*
X907651Y760694D01*
X907575Y761563D01*
X907575Y762437D01*
X907651Y763307D01*
X907803Y764166D01*
X908029Y765010D01*
X908327Y765830D01*
X908696Y766622D01*
X909133Y767378D01*
X909634Y768093D01*
X910195Y768762D01*
X910813Y769380D01*
X911482Y769941D01*
X912197Y770442D01*
X912953Y770879D01*
X913745Y771248D01*
X914565Y771546D01*
X915409Y771772D01*
X916269Y771924D01*
X917138Y772000D01*
X918012Y772000D01*
X918882Y771924D01*
X919741Y771772D01*
X920585Y771546D01*
X921405Y771248D01*
X922197Y770879D01*
X922953Y770442D01*
X923668Y769941D01*
X924337Y769380D01*
X924955Y768762D01*
X925516Y768093D01*
X926017Y767378D01*
X926454Y766622D01*
X926823Y765830D01*
X927121Y765010D01*
X927347Y764166D01*
X927499Y763307D01*
X927575Y762437D01*
X927575Y761563D01*
X1058385Y800933D02*
X1058309Y800064D01*
X1058157Y799204D01*
X1057931Y798360D01*
X1057633Y797540D01*
X1057264Y796748D01*
X1056827Y795992D01*
X1056326Y795277D01*
X1055765Y794608D01*
X1055147Y793990D01*
X1054478Y793429D01*
X1053763Y792928D01*
X1053007Y792491D01*
X1052215Y792122D01*
X1051395Y791824D01*
X1050551Y791598D01*
X1049692Y791446D01*
X1048822Y791370D01*
X1047948Y791370D01*
X1047079Y791446D01*
X1046219Y791598D01*
X1045375Y791824D01*
X1044555Y792122D01*
X1043763Y792491D01*
X1043007Y792928D01*
X1042292Y793429D01*
X1041623Y793990D01*
X1041005Y794608D01*
X1040444Y795277D01*
X1039943Y795992D01*
X1039506Y796748D01*
X1039137Y797540D01*
X1038839Y798360D01*
X1038613Y799204D01*
X1038461Y800064D01*
X1038385Y800933D01*
X1038385Y801807D01*
X1038461Y802677D01*
X1038613Y803536D01*
X1038839Y804380D01*
X1039137Y805200D01*
X1039506Y805992D01*
X1039943Y806748D01*
X1040444Y807463D01*
X1041005Y808132D01*
X1041623Y808750D01*
X1042292Y809311D01*
X1043007Y809812D01*
X1043763Y810249D01*
X1044555Y810618D01*
X1045375Y810916D01*
X1046219Y811142D01*
X1047079Y811294D01*
X1047948Y811370D01*
X1048822Y811370D01*
X1049692Y811294D01*
X1050551Y811142D01*
X1051395Y810916D01*
X1052215Y810618D01*
X1053007Y810249D01*
X1053763Y809812D01*
X1054478Y809311D01*
X1055147Y808750D01*
X1055765Y808132D01*
X1056326Y807463D01*
X1056827Y806748D01*
X1057264Y805992D01*
X1057633Y805200D01*
X1057931Y804380D01*
X1058157Y803536D01*
X1058309Y802677D01*
X1058385Y801807D01*
X1058385Y800933D01*
X1045083Y710602D02*
X1045022Y709981D01*
X1044900Y709369D01*
X1044719Y708772D01*
X1044480Y708196D01*
X1044186Y707646D01*
X1043840Y707127D01*
X1043444Y706645D01*
X1043003Y706204D01*
X1042520Y705808D01*
X1042002Y705461D01*
X1041451Y705167D01*
X1040875Y704928D01*
X1040278Y704747D01*
X1039666Y704625D01*
X1039045Y704564D01*
X1038421Y704564D01*
X1037800Y704625D01*
X1037188Y704747D01*
X1036591Y704928D01*
X1036015Y705167D01*
X1035465Y705461D01*
X1034946Y705808D01*
X1034463Y706204D01*
X1034022Y706645D01*
X1033626Y707127D01*
X1033280Y707646D01*
X1032986Y708196D01*
X1032747Y708772D01*
X1032566Y709369D01*
X1032444Y709981D01*
X1032383Y710602D01*
X1032383Y711226D01*
X1032444Y711847D01*
X1032566Y712459D01*
X1032747Y713056D01*
X1032986Y713633D01*
X1033280Y714183D01*
X1033626Y714702D01*
X1034022Y715184D01*
X1034463Y715625D01*
X1034946Y716021D01*
X1035465Y716367D01*
X1036015Y716662D01*
X1036591Y716900D01*
X1037188Y717081D01*
X1037800Y717203D01*
X1038421Y717264D01*
X1039045Y717264D01*
X1039666Y717203D01*
X1040278Y717081D01*
X1040875Y716900D01*
X1041451Y716662D01*
X1042002Y716367D01*
X1042520Y716021D01*
X1043003Y715625D01*
X1043444Y715184D01*
X1043840Y714702D01*
X1044186Y714183D01*
X1044480Y713633D01*
X1044719Y713056D01*
X1044900Y712459D01*
X1045022Y711847D01*
X1045083Y711226D01*
X1045083Y710602D01*
X1045083Y765149D02*
X1045022Y764528D01*
X1044900Y763916D01*
X1044719Y763319D01*
X1044480Y762743D01*
X1044186Y762192D01*
X1043840Y761674D01*
X1043444Y761191D01*
X1043003Y760750D01*
X1042520Y760354D01*
X1042002Y760008D01*
X1041451Y759714D01*
X1040875Y759475D01*
X1040278Y759294D01*
X1039666Y759172D01*
X1039045Y759111D01*
X1038421Y759111D01*
X1037800Y759172D01*
X1037188Y759294D01*
X1036591Y759475D01*
X1036015Y759714D01*
X1035465Y760008D01*
X1034946Y760354D01*
X1034463Y760750D01*
X1034022Y761191D01*
X1033626Y761674D01*
X1033280Y762192D01*
X1032986Y762743D01*
X1032747Y763319D01*
X1032566Y763916D01*
X1032444Y764528D01*
X1032383Y765149D01*
X1032383Y765773D01*
X1032444Y766394D01*
X1032566Y767006D01*
X1032747Y767603D01*
X1032986Y768179D01*
X1033280Y768729D01*
X1033626Y769248D01*
X1034022Y769730D01*
X1034463Y770171D01*
X1034946Y770567D01*
X1035465Y770914D01*
X1036015Y771208D01*
X1036591Y771447D01*
X1037188Y771628D01*
X1037800Y771750D01*
X1038421Y771811D01*
X1039045Y771811D01*
X1039666Y771750D01*
X1040278Y771628D01*
X1040875Y771447D01*
X1041451Y771208D01*
X1042002Y770914D01*
X1042520Y770567D01*
X1043003Y770171D01*
X1043444Y769730D01*
X1043840Y769248D01*
X1044186Y768729D01*
X1044480Y768179D01*
X1044719Y767603D01*
X1044900Y767006D01*
X1045022Y766394D01*
X1045083Y765773D01*
X1045083Y765149D01*
X661988Y976186D02*
X661910Y975303D01*
X661756Y974429D01*
X661527Y973572D01*
X661223Y972738D01*
X660848Y971934D01*
X660405Y971166D01*
X659896Y970439D01*
X659325Y969759D01*
X658698Y969132D01*
X658018Y968562D01*
X657292Y968053D01*
X656523Y967609D01*
X655719Y967234D01*
X654886Y966931D01*
X654029Y966701D01*
X653155Y966547D01*
X652271Y966470D01*
X651384Y966470D01*
X650500Y966547D01*
X649626Y966701D01*
X648769Y966931D01*
X647936Y967234D01*
X647132Y967609D01*
X646363Y968053D01*
X645637Y968562D01*
X644957Y969132D01*
X644330Y969759D01*
X643759Y970439D01*
X643250Y971166D01*
X642807Y971934D01*
X642432Y972738D01*
X642129Y973572D01*
X641899Y974429D01*
X641745Y975303D01*
X641668Y976186D01*
X641668Y977074D01*
X641745Y977957D01*
X641899Y978831D01*
X642129Y979688D01*
X642432Y980522D01*
X642807Y981326D01*
X643250Y982094D01*
X643759Y982821D01*
X644330Y983501D01*
X644957Y984128D01*
X645637Y984698D01*
X646363Y985207D01*
X647132Y985651D01*
X647936Y986026D01*
X648769Y986329D01*
X649626Y986559D01*
X650500Y986713D01*
X651384Y986790D01*
X652271Y986790D01*
X653155Y986713D01*
X654029Y986559D01*
X654886Y986329D01*
X655719Y986026D01*
X656523Y985651D01*
X657292Y985207D01*
X658018Y984698D01*
X658698Y984128D01*
X659325Y983501D01*
X659896Y982821D01*
X660405Y982094D01*
X660848Y981326D01*
X661223Y980522D01*
X661527Y979688D01*
X661756Y978831D01*
X661910Y977957D01*
X661988Y977074D01*
X661988Y976186D01*
X726440Y976504D02*
X726363Y975620D01*
X726209Y974746D01*
X725979Y973889D01*
X725676Y973056D01*
X725301Y972252D01*
X724857Y971483D01*
X724348Y970757D01*
X723778Y970077D01*
X723151Y969450D01*
X722471Y968879D01*
X721744Y968370D01*
X720976Y967927D01*
X720172Y967552D01*
X719338Y967249D01*
X718481Y967019D01*
X717607Y966865D01*
X716724Y966788D01*
X715836Y966788D01*
X714953Y966865D01*
X714079Y967019D01*
X713222Y967249D01*
X712388Y967552D01*
X711584Y967927D01*
X710816Y968370D01*
X710089Y968879D01*
X709409Y969450D01*
X708782Y970077D01*
X708212Y970757D01*
X707703Y971483D01*
X707259Y972252D01*
X706884Y973056D01*
X706581Y973889D01*
X706351Y974746D01*
X706197Y975620D01*
X706120Y976504D01*
X706120Y977391D01*
X706197Y978275D01*
X706351Y979149D01*
X706581Y980006D01*
X706884Y980839D01*
X707259Y981643D01*
X707703Y982412D01*
X708212Y983138D01*
X708782Y983818D01*
X709409Y984445D01*
X710089Y985016D01*
X710816Y985525D01*
X711584Y985968D01*
X712388Y986343D01*
X713222Y986647D01*
X714079Y986876D01*
X714953Y987030D01*
X715836Y987108D01*
X716724Y987108D01*
X717607Y987030D01*
X718481Y986876D01*
X719338Y986647D01*
X720172Y986343D01*
X720976Y985968D01*
X721744Y985525D01*
X722471Y985016D01*
X723151Y984445D01*
X723778Y983818D01*
X724348Y983138D01*
X724857Y982412D01*
X725301Y981643D01*
X725676Y980839D01*
X725979Y980006D01*
X726209Y979149D01*
X726363Y978275D01*
X726440Y977391D01*
X726440Y976504D01*
X891858Y974337D02*
X891925Y973564D01*
X892060Y972799D01*
X892261Y972049D01*
X892526Y971320D01*
X892854Y970616D01*
X893243Y969944D01*
X893688Y969308D01*
X894187Y968713D01*
X894736Y968164D01*
X895330Y967665D01*
X895966Y967220D01*
X896639Y966832D01*
X897342Y966504D01*
X898072Y966238D01*
X898822Y966037D01*
X899586Y965903D01*
X900359Y965835D01*
X901136Y965835D01*
X901909Y965903D01*
X902673Y966037D01*
X903423Y966238D01*
X904153Y966504D01*
X904856Y966832D01*
X905529Y967220D01*
X906165Y967665D01*
X906759Y968164D01*
X907308Y968713D01*
X907807Y969308D01*
X908252Y969944D01*
X908641Y970616D01*
X908969Y971320D01*
X909234Y972049D01*
X909435Y972799D01*
X909570Y973564D01*
X909638Y974337D01*
X909638Y975113D01*
X909570Y975886D01*
X909435Y976651D01*
X909234Y977401D01*
X908969Y978130D01*
X908641Y978834D01*
X908252Y979506D01*
X907807Y980142D01*
X907308Y980737D01*
X906759Y981286D01*
X906165Y981785D01*
X905529Y982230D01*
X904856Y982618D01*
X904153Y982946D01*
X903423Y983212D01*
X902673Y983413D01*
X901909Y983547D01*
X901136Y983615D01*
X900359Y983615D01*
X899586Y983547D01*
X898822Y983413D01*
X898072Y983212D01*
X897342Y982946D01*
X896639Y982618D01*
X895966Y982230D01*
X895330Y981785D01*
X894736Y981286D01*
X894187Y980737D01*
X893688Y980142D01*
X893243Y979506D01*
X892854Y978834D01*
X892526Y978130D01*
X892261Y977401D01*
X892060Y976651D01*
X891925Y975886D01*
X891858Y975113D01*
X891858Y974337D01*
X816928Y974337D02*
X816995Y973564D01*
X817130Y972799D01*
X817331Y972049D01*
X817596Y971320D01*
X817924Y970616D01*
X818313Y969944D01*
X818758Y969308D01*
X819257Y968713D01*
X819806Y968164D01*
X820400Y967665D01*
X821036Y967220D01*
X821709Y966832D01*
X822412Y966504D01*
X823142Y966238D01*
X823892Y966037D01*
X824656Y965903D01*
X825429Y965835D01*
X826206Y965835D01*
X826979Y965903D01*
X827743Y966037D01*
X828493Y966238D01*
X829223Y966504D01*
X829926Y966832D01*
X830599Y967220D01*
X831235Y967665D01*
X831829Y968164D01*
X832378Y968713D01*
X832877Y969308D01*
X833322Y969944D01*
X833711Y970616D01*
X834039Y971320D01*
X834304Y972049D01*
X834505Y972799D01*
X834640Y973564D01*
X834708Y974337D01*
X834708Y975113D01*
X834640Y975886D01*
X834505Y976651D01*
X834304Y977401D01*
X834039Y978130D01*
X833711Y978834D01*
X833322Y979506D01*
X832877Y980142D01*
X832378Y980737D01*
X831829Y981286D01*
X831235Y981785D01*
X830599Y982230D01*
X829926Y982618D01*
X829223Y982946D01*
X828493Y983212D01*
X827743Y983413D01*
X826979Y983547D01*
X826206Y983615D01*
X825429Y983615D01*
X824656Y983547D01*
X823892Y983413D01*
X823142Y983212D01*
X822412Y982946D01*
X821709Y982618D01*
X821036Y982230D01*
X820400Y981785D01*
X819806Y981286D01*
X819257Y980737D01*
X818758Y980142D01*
X818313Y979506D01*
X817924Y978834D01*
X817596Y978130D01*
X817331Y977401D01*
X817130Y976651D01*
X816995Y975886D01*
X816928Y975113D01*
X816928Y974337D01*
X1115340Y473710D02*
X1115961Y473771D01*
X1116573Y473893D01*
X1117170Y474074D01*
X1117747Y474313D01*
X1118297Y474607D01*
X1118816Y474953D01*
X1119298Y475349D01*
X1119739Y475790D01*
X1120135Y476273D01*
X1120481Y476792D01*
X1120776Y477342D01*
X1121014Y477918D01*
X1121195Y478515D01*
X1121317Y479127D01*
X1121378Y479748D01*
X1121378Y480372D01*
X1121317Y480993D01*
X1121195Y481605D01*
X1121014Y482202D01*
X1120776Y482778D01*
X1120481Y483329D01*
X1120135Y483847D01*
X1119739Y484330D01*
X1119298Y484771D01*
X1118816Y485167D01*
X1118297Y485513D01*
X1117747Y485807D01*
X1117170Y486046D01*
X1116573Y486227D01*
X1115961Y486349D01*
X1115340Y486410D01*
X1114716Y486410D01*
X1114095Y486349D01*
X1113483Y486227D01*
X1112886Y486046D01*
X1112310Y485807D01*
X1111760Y485513D01*
X1111241Y485167D01*
X1110759Y484771D01*
X1110318Y484330D01*
X1109922Y483847D01*
X1109575Y483329D01*
X1109281Y482778D01*
X1109042Y482202D01*
X1108861Y481605D01*
X1108739Y480993D01*
X1108678Y480372D01*
X1108678Y479748D01*
X1108739Y479127D01*
X1108861Y478515D01*
X1109042Y477918D01*
X1109281Y477342D01*
X1109575Y476792D01*
X1109922Y476273D01*
X1110318Y475790D01*
X1110759Y475349D01*
X1111241Y474953D01*
X1111760Y474607D01*
X1112310Y474313D01*
X1112886Y474074D01*
X1113483Y473893D01*
X1114095Y473771D01*
X1114716Y473710D01*
X1115340Y473710D01*
X1115340Y397510D02*
X1115961Y397571D01*
X1116573Y397693D01*
X1117170Y397874D01*
X1117747Y398113D01*
X1118297Y398407D01*
X1118816Y398753D01*
X1119298Y399149D01*
X1119739Y399590D01*
X1120135Y400073D01*
X1120481Y400592D01*
X1120776Y401142D01*
X1121014Y401718D01*
X1121195Y402315D01*
X1121317Y402927D01*
X1121378Y403548D01*
X1121378Y404172D01*
X1121317Y404793D01*
X1121195Y405405D01*
X1121014Y406002D01*
X1120776Y406578D01*
X1120481Y407129D01*
X1120135Y407647D01*
X1119739Y408130D01*
X1119298Y408571D01*
X1118816Y408967D01*
X1118297Y409313D01*
X1117747Y409607D01*
X1117170Y409846D01*
X1116573Y410027D01*
X1115961Y410149D01*
X1115340Y410210D01*
X1114716Y410210D01*
X1114095Y410149D01*
X1113483Y410027D01*
X1112886Y409846D01*
X1112310Y409607D01*
X1111760Y409313D01*
X1111241Y408967D01*
X1110759Y408571D01*
X1110318Y408130D01*
X1109922Y407647D01*
X1109575Y407129D01*
X1109281Y406578D01*
X1109042Y406002D01*
X1108861Y405405D01*
X1108739Y404793D01*
X1108678Y404172D01*
X1108678Y403548D01*
X1108739Y402927D01*
X1108861Y402315D01*
X1109042Y401718D01*
X1109281Y401142D01*
X1109575Y400592D01*
X1109922Y400073D01*
X1110318Y399590D01*
X1110759Y399149D01*
X1111241Y398753D01*
X1111760Y398407D01*
X1112310Y398113D01*
X1112886Y397874D01*
X1113483Y397693D01*
X1114095Y397571D01*
X1114716Y397510D01*
X1115340Y397510D01*
X817076Y974902D02*
X817115Y975715D01*
X817105Y975716D01*
X817066Y974902D01*
X817076Y974902D01*
X892169Y974902D02*
X892208Y975715D01*
X892198Y975716D01*
X892159Y974902D01*
X892169Y974902D01*
X1038860Y760162D02*
X1038256Y760197D01*
X1038169Y759440D01*
X1038860Y759400D01*
X1038860Y760162D01*
X1038860Y705552D02*
X1038256Y705587D01*
X1038169Y704830D01*
X1038860Y704790D01*
X1038860Y705552D01*
M02*
