G04 EAGLE Gerber X2 export*
%TF.Part,Single*%
%TF.FileFunction,Soldermask,Bot,1*%
%TF.FilePolarity,Negative*%
%TF.GenerationSoftware,Autodesk,EAGLE,9.0.0*%
%TF.CreationDate,2018-08-21T14:51:34Z*%
G75*
%MOMM*%
%FSLAX34Y34*%
%LPD*%
%AMOC8*
5,1,8,0,0,1.08239X$1,22.5*%
G01*
%ADD10C,4.292600*%
%ADD11C,2.260600*%
%ADD12C,17.373600*%
%ADD13C,2.101600*%
%ADD14C,1.371600*%
%ADD15C,2.133600*%
%ADD16C,1.184147*%
%ADD17R,1.625600X1.625600*%
%ADD18C,1.752600*%
%ADD19R,1.752600X1.752600*%
%ADD20C,1.609600*%
%ADD21C,2.051600*%
%ADD22C,2.410100*%
%ADD23C,1.648100*%
%ADD24R,0.873759X2.123441*%
%ADD25C,2.405300*%
%ADD26C,2.411300*%
%ADD27C,1.879600*%
%ADD28R,1.498600X1.371600*%
%ADD29R,2.387600X3.200400*%
%ADD30R,1.701800X1.244600*%
%ADD31R,3.911600X1.574800*%
%ADD32R,3.022600X3.022600*%
%ADD33C,1.637791*%


D10*
X439420Y871220D03*
X772160Y928370D03*
X1103630Y871220D03*
X1115060Y273050D03*
X426720Y273050D03*
D11*
X770890Y666750D03*
D12*
X772160Y462280D03*
D13*
X917575Y762000D03*
X1048385Y801370D03*
D14*
X1038733Y710914D03*
X1038733Y765461D03*
D15*
X651828Y976630D03*
X716280Y976948D03*
D16*
X673700Y910893D02*
X666744Y910893D01*
X673700Y910893D02*
X673700Y893777D01*
X666744Y893777D01*
X666744Y910893D01*
X666744Y905617D02*
X673700Y905617D01*
X691479Y910974D02*
X698435Y910974D01*
X698435Y893858D01*
X691479Y893858D01*
X691479Y910974D01*
X691479Y905698D02*
X698435Y905698D01*
D17*
X967740Y568078D03*
X967740Y593478D03*
X942340Y568078D03*
X942340Y593478D03*
X916940Y568078D03*
X916940Y593478D03*
X891540Y568078D03*
X891540Y593478D03*
X866140Y568078D03*
X866140Y593478D03*
X840740Y568078D03*
X840740Y593478D03*
X815340Y568078D03*
X815340Y593478D03*
X789940Y568078D03*
X789940Y593478D03*
X764540Y568078D03*
X764540Y593478D03*
X739140Y568078D03*
X739140Y593478D03*
X713740Y568078D03*
X713740Y593478D03*
X688340Y568078D03*
X688340Y593478D03*
X662940Y568078D03*
X662940Y593478D03*
X637540Y568078D03*
X637540Y593478D03*
X612140Y568078D03*
X612140Y593478D03*
X586740Y568078D03*
X586740Y593478D03*
X561340Y568078D03*
X561340Y593478D03*
X535940Y568078D03*
X535940Y593478D03*
X510540Y568078D03*
X510540Y593478D03*
X485140Y568078D03*
X485140Y593478D03*
D18*
X651292Y336056D03*
D19*
X630225Y336056D03*
D20*
X663260Y959960D03*
X663260Y939960D03*
X683260Y959960D03*
X683260Y939960D03*
X703260Y959960D03*
X703260Y939960D03*
D21*
X633260Y953960D02*
X633260Y973460D01*
X733260Y973460D02*
X733260Y953960D01*
D22*
X484378Y929488D03*
X404368Y929488D03*
D23*
X466598Y910438D03*
X423418Y910438D03*
D22*
X1136650Y930593D03*
X1056640Y930593D03*
D23*
X1118870Y911543D03*
X1075690Y911543D03*
D24*
X901383Y928497D03*
X882333Y928497D03*
X856298Y928497D03*
X837375Y928497D03*
D25*
X920306Y958889D02*
X920306Y981926D01*
D26*
X805498Y981956D02*
X805498Y958859D01*
D27*
X900748Y974725D03*
X825818Y974725D03*
D28*
X1068070Y762921D03*
X1068070Y737921D03*
X1068070Y712921D03*
D29*
X1037844Y738283D03*
D30*
X1091787Y482092D03*
X1091787Y457200D03*
X1091787Y426720D03*
X1091787Y401828D03*
D31*
X1115028Y517271D03*
X1115028Y366649D03*
D14*
X1115028Y480060D03*
X1115028Y403860D03*
D32*
X400150Y692655D03*
X400150Y832355D03*
X628750Y692655D03*
X628750Y725675D03*
X628750Y799335D03*
X628750Y832355D03*
D33*
X906555Y879065D02*
X916593Y879065D01*
X916593Y843627D01*
X906555Y843627D01*
X906555Y879065D01*
X906555Y860004D02*
X916593Y860004D01*
X916593Y876381D02*
X906555Y876381D01*
X871612Y878990D02*
X861574Y878990D01*
X871612Y878990D02*
X871612Y843552D01*
X861574Y843552D01*
X861574Y878990D01*
X861574Y859929D02*
X871612Y859929D01*
X871612Y876306D02*
X861574Y876306D01*
D16*
X648360Y911004D02*
X641404Y911004D01*
X648360Y911004D02*
X648360Y893888D01*
X641404Y893888D01*
X641404Y911004D01*
X641404Y905728D02*
X648360Y905728D01*
X716430Y910923D02*
X723386Y910923D01*
X723386Y893807D01*
X716430Y893807D01*
X716430Y910923D01*
X716430Y905647D02*
X723386Y905647D01*
D18*
X1120902Y625348D03*
X1120902Y588518D03*
X1120902Y662178D03*
X1120902Y699008D03*
X1120902Y737108D03*
X545592Y657098D03*
X482092Y654558D03*
X602742Y650748D03*
X571516Y654802D03*
X901192Y659638D03*
X1034542Y681228D03*
X1073912Y808228D03*
X941832Y777748D03*
X844042Y265938D03*
X699262Y265938D03*
X738632Y662178D03*
X1070102Y888238D03*
X473182Y883138D03*
M02*
