G04 EAGLE Gerber X2 export*
%TF.Part,Single*%
%TF.FileFunction,Paste,Top*%
%TF.FilePolarity,Positive*%
%TF.GenerationSoftware,Autodesk,EAGLE,9.0.0*%
%TF.CreationDate,2018-08-21T14:51:34Z*%
G75*
%MOMM*%
%FSLAX34Y34*%
%LPD*%
%AMOC8*
5,1,8,0,0,1.08239X$1,22.5*%
G01*
%ADD10R,1.000000X1.100000*%
%ADD11R,0.250000X1.250000*%
%ADD12R,1.650000X2.050000*%
%ADD13R,1.016000X0.889000*%
%ADD14C,2.159000*%
%ADD15C,2.413000*%
%ADD16R,2.540000X5.080000*%
%ADD17C,1.651000*%
%ADD18R,0.400000X4.000000*%
%ADD19R,1.397000X1.016000*%


D10*
X1007590Y691750D03*
X1007590Y641750D03*
X1067590Y691750D03*
X1067590Y641750D03*
X876780Y652380D03*
X876780Y602380D03*
X936780Y652380D03*
X936780Y602380D03*
X535150Y596500D03*
X535150Y546500D03*
X595150Y596500D03*
X595150Y546500D03*
X465300Y666350D03*
X465300Y616350D03*
X525300Y666350D03*
X525300Y616350D03*
X603730Y666350D03*
X603730Y616350D03*
X663730Y666350D03*
X663730Y616350D03*
D11*
X941463Y831418D03*
X931463Y831418D03*
X921463Y831418D03*
X911463Y831418D03*
X901463Y831418D03*
X891463Y831418D03*
X881463Y831418D03*
X871463Y831418D03*
D12*
X847463Y863918D03*
X965463Y863918D03*
D10*
X535150Y734930D03*
X535150Y684930D03*
X595150Y734930D03*
X595150Y684930D03*
X1018385Y826370D03*
X1018385Y776370D03*
X1078385Y826370D03*
X1078385Y776370D03*
X887575Y787000D03*
X887575Y737000D03*
X947575Y787000D03*
X947575Y737000D03*
D13*
X680720Y299720D03*
X718820Y299720D03*
X718820Y261620D03*
X680720Y261620D03*
X822960Y299720D03*
X861060Y299720D03*
X861060Y261620D03*
X822960Y261620D03*
X751205Y842328D03*
X789305Y842328D03*
X789305Y804228D03*
X751205Y804228D03*
D14*
X1082802Y498602D03*
X1057402Y498602D03*
X1032002Y498602D03*
X1006602Y498602D03*
X981202Y498602D03*
X955802Y498602D03*
X930402Y498602D03*
D15*
X1024382Y369062D03*
X988822Y369062D03*
D16*
X751840Y575310D03*
X791210Y575310D03*
D17*
X1001268Y916178D03*
X977138Y916178D03*
X953008Y916178D03*
X927608Y916178D03*
X902208Y916178D03*
X876808Y916178D03*
X851408Y916178D03*
X1025398Y916178D03*
D18*
X1256399Y833003D03*
X1264399Y833003D03*
X1248399Y833003D03*
X1240399Y833003D03*
X1232399Y833003D03*
X1224399Y833003D03*
X1216399Y833003D03*
X1208399Y833003D03*
X1272399Y833003D03*
X1280399Y833003D03*
X1288399Y833003D03*
X1296399Y833003D03*
X1304399Y833003D03*
X1312399Y833003D03*
X1200399Y833003D03*
X1192399Y833003D03*
X1320399Y833003D03*
X1328399Y833003D03*
D19*
X1327785Y770636D03*
X1327785Y789432D03*
D11*
X1224332Y743573D03*
X1234332Y743573D03*
X1244332Y743573D03*
X1254332Y743573D03*
X1264332Y743573D03*
X1274332Y743573D03*
X1284332Y743573D03*
X1294332Y743573D03*
D12*
X1318332Y711073D03*
X1200332Y711073D03*
D17*
X1189863Y644652D03*
X1210183Y644652D03*
X1230503Y644652D03*
X1250823Y644652D03*
X1271143Y644652D03*
X1291463Y644652D03*
X1311783Y644652D03*
X1332103Y644652D03*
M02*
