G04 EAGLE Gerber X2 export*
%TF.Part,Single*%
%TF.FileFunction,Soldermask,Top,1*%
%TF.FilePolarity,Negative*%
%TF.GenerationSoftware,Autodesk,EAGLE,9.0.0*%
%TF.CreationDate,2018-08-21T14:51:34Z*%
G75*
%MOMM*%
%FSLAX34Y34*%
%LPD*%
%AMOC8*
5,1,8,0,0,1.08239X$1,22.5*%
G01*
%ADD10C,4.292600*%
%ADD11C,2.260600*%
%ADD12C,17.373600*%
%ADD13C,2.101600*%
%ADD14C,1.371600*%
%ADD15C,2.133600*%
%ADD16R,1.101600X1.201600*%
%ADD17R,0.400000X1.400000*%
%ADD18R,1.900000X2.350000*%
%ADD19C,1.752600*%
%ADD20R,1.752600X1.752600*%
%ADD21C,1.609600*%
%ADD22C,2.051600*%
%ADD23R,1.117600X0.990600*%
%ADD24C,2.514600*%
%ADD25R,2.641600X5.181600*%
%ADD26C,2.410100*%
%ADD27C,1.648100*%
%ADD28C,2.405300*%
%ADD29C,2.411300*%
%ADD30C,1.879600*%
%ADD31R,0.501600X4.101600*%
%ADD32R,1.498600X1.117600*%


D10*
X439420Y871220D03*
X772160Y928370D03*
X1103630Y871220D03*
X1115060Y273050D03*
X426720Y273050D03*
D11*
X770890Y666750D03*
D12*
X772160Y462280D03*
D13*
X917575Y762000D03*
X1048385Y801370D03*
D14*
X1038733Y710914D03*
X1038733Y765461D03*
D15*
X651828Y976630D03*
X716280Y976948D03*
D16*
X1007590Y691750D03*
X1007590Y641750D03*
X1067590Y691750D03*
X1067590Y641750D03*
X876780Y652380D03*
X876780Y602380D03*
X936780Y652380D03*
X936780Y602380D03*
X535150Y596500D03*
X535150Y546500D03*
X595150Y596500D03*
X595150Y546500D03*
X465300Y666350D03*
X465300Y616350D03*
X525300Y666350D03*
X525300Y616350D03*
X603730Y666350D03*
X603730Y616350D03*
X663730Y666350D03*
X663730Y616350D03*
D17*
X941463Y831418D03*
X931463Y831418D03*
X921463Y831418D03*
X911463Y831418D03*
X901463Y831418D03*
X891463Y831418D03*
X881463Y831418D03*
X871463Y831418D03*
D18*
X847463Y863918D03*
X965463Y863918D03*
D19*
X651292Y336056D03*
D20*
X630225Y336056D03*
D16*
X535150Y734930D03*
X535150Y684930D03*
X595150Y734930D03*
X595150Y684930D03*
X1018385Y826370D03*
X1018385Y776370D03*
X1078385Y826370D03*
X1078385Y776370D03*
X887575Y787000D03*
X887575Y737000D03*
X947575Y787000D03*
X947575Y737000D03*
D21*
X663260Y959960D03*
X663260Y939960D03*
X683260Y959960D03*
X683260Y939960D03*
X703260Y959960D03*
X703260Y939960D03*
D22*
X633260Y953960D02*
X633260Y973460D01*
X733260Y973460D02*
X733260Y953960D01*
D23*
X680720Y299720D03*
X718820Y299720D03*
X718820Y261620D03*
X680720Y261620D03*
X822960Y299720D03*
X861060Y299720D03*
X861060Y261620D03*
X822960Y261620D03*
X751205Y842328D03*
X789305Y842328D03*
X789305Y804228D03*
X751205Y804228D03*
D11*
X1082802Y498602D03*
X1057402Y498602D03*
X1032002Y498602D03*
X1006602Y498602D03*
X981202Y498602D03*
X955802Y498602D03*
X930402Y498602D03*
D24*
X1024382Y369062D03*
X988822Y369062D03*
D25*
X751840Y575310D03*
X791210Y575310D03*
D19*
X1001268Y916178D03*
X977138Y916178D03*
X953008Y916178D03*
X927608Y916178D03*
X902208Y916178D03*
X876808Y916178D03*
X851408Y916178D03*
X1025398Y916178D03*
D26*
X484378Y929488D03*
X404368Y929488D03*
D27*
X466598Y910438D03*
X423418Y910438D03*
D26*
X1136650Y930593D03*
X1056640Y930593D03*
D27*
X1118870Y911543D03*
X1075690Y911543D03*
D28*
X920306Y958889D02*
X920306Y981926D01*
D29*
X805498Y981956D02*
X805498Y958859D01*
D30*
X900748Y974725D03*
X825818Y974725D03*
D14*
X1115028Y480060D03*
X1115028Y403860D03*
D31*
X1256399Y833003D03*
X1264399Y833003D03*
X1248399Y833003D03*
X1240399Y833003D03*
X1232399Y833003D03*
X1224399Y833003D03*
X1216399Y833003D03*
X1208399Y833003D03*
X1272399Y833003D03*
X1280399Y833003D03*
X1288399Y833003D03*
X1296399Y833003D03*
X1304399Y833003D03*
X1312399Y833003D03*
X1200399Y833003D03*
X1192399Y833003D03*
X1320399Y833003D03*
X1328399Y833003D03*
D32*
X1327785Y770636D03*
X1327785Y789432D03*
D17*
X1224332Y743573D03*
X1234332Y743573D03*
X1244332Y743573D03*
X1254332Y743573D03*
X1264332Y743573D03*
X1274332Y743573D03*
X1284332Y743573D03*
X1294332Y743573D03*
D18*
X1318332Y711073D03*
X1200332Y711073D03*
D19*
X1189863Y644652D03*
X1210183Y644652D03*
X1230503Y644652D03*
X1250823Y644652D03*
X1271143Y644652D03*
X1291463Y644652D03*
X1311783Y644652D03*
X1332103Y644652D03*
M02*
